<svg width="25" height="25" viewBox="0 0 25 25" fill="none" xmlns="http://www.w3.org/2000/svg">
<path d="M7.39996 14.3371C9.16245 14.3371 10.5749 15.7633 10.5749 17.5383L10.5749 21.7995C10.5749 23.562 9.16245 24.9995 7.39996 24.9995H3.17498C1.42499 24.9995 0 23.562 0 21.7995L0 17.5383C0 15.7633 1.42499 14.3371 3.17498 14.3371L7.39996 14.3371ZM21.825 14.3371C23.575 14.3371 25 15.7633 25 17.5383V21.7995C25 23.562 23.575 24.9995 21.825 24.9995H17.6C15.8375 24.9995 14.4251 23.562 14.4251 21.7995L14.4251 17.5383C14.4251 15.7633 15.8375 14.3371 17.6 14.3371L21.825 14.3371ZM7.39996 0C9.16245 0 10.5749 1.43749 10.5749 3.20123L10.5749 7.46246C10.5749 9.23746 9.16245 10.6624 7.39996 10.6624L3.17498 10.6624C1.42499 10.6624 0 9.23746 0 7.46246L0 3.20123C0 1.43749 1.42499 0 3.17498 0L7.39996 0ZM21.825 0C23.575 0 25 1.43749 25 3.20123V7.46246C25 9.23746 23.575 10.6624 21.825 10.6624L17.6 10.6624C15.8375 10.6624 14.4251 9.23746 14.4251 7.46246L14.4251 3.20123C14.4251 1.43749 15.8375 0 17.6 0L21.825 0Z" fill="#1A1A1A"/>
<path d="M7.39996 14.3371C9.16245 14.3371 10.5749 15.7633 10.5749 17.5383L10.5749 21.7995C10.5749 23.562 9.16245 24.9995 7.39996 24.9995H3.17498C1.42499 24.9995 0 23.562 0 21.7995L0 17.5383C0 15.7633 1.42499 14.3371 3.17498 14.3371L7.39996 14.3371ZM21.825 14.3371C23.575 14.3371 25 15.7633 25 17.5383V21.7995C25 23.562 23.575 24.9995 21.825 24.9995H17.6C15.8375 24.9995 14.4251 23.562 14.4251 21.7995L14.4251 17.5383C14.4251 15.7633 15.8375 14.3371 17.6 14.3371L21.825 14.3371ZM7.39996 0C9.16245 0 10.5749 1.43749 10.5749 3.20123L10.5749 7.46246C10.5749 9.23746 9.16245 10.6624 7.39996 10.6624L3.17498 10.6624C1.42499 10.6624 0 9.23746 0 7.46246L0 3.20123C0 1.43749 1.42499 0 3.17498 0L7.39996 0ZM21.825 0C23.575 0 25 1.43749 25 3.20123V7.46246C25 9.23746 23.575 10.6624 21.825 10.6624L17.6 10.6624C15.8375 10.6624 14.4251 9.23746 14.4251 7.46246L14.4251 3.20123C14.4251 1.43749 15.8375 0 17.6 0L21.825 0Z" fill="#1A1A1A"/>
</svg>
