<svg width="22" height="21" viewBox="0 0 22 21" fill="none" xmlns="http://www.w3.org/2000/svg">
<g clip-path="url(#clip0_764_51864)">
<path d="M9.3335 1C11.2814 1.00013 12.8696 2.58723 12.8696 4.53809C12.8696 5.47999 12.5016 6.36963 11.8335 7.03809C11.1652 7.70658 10.2777 8.07611 9.3335 8.07617C8.23225 8.07617 7.24748 7.56863 6.59814 6.77637L7.57764 8.29199C9.42967 9.61559 11.3694 8.1771 11.3999 8.1543C11.5854 8.01155 11.8449 8.02364 12.0161 8.18066C12.3086 8.44943 12.5534 8.7491 12.7603 9.06543C13.2525 8.81328 13.7999 8.67486 14.3706 8.6748C16.3186 8.6748 17.9058 10.2624 17.9058 12.2109C17.9057 13.1553 17.5368 14.0425 16.8687 14.7109C16.2003 15.3795 15.3125 15.749 14.3706 15.749C12.8676 15.7489 11.5837 14.8015 11.0747 13.4766H7.7749C7.59894 13.9331 7.33067 14.3542 6.97412 14.7109C6.30576 15.3795 5.41796 15.749 4.47607 15.749C2.52832 15.7489 0.942084 14.1641 0.941895 12.2158C0.941895 11.2714 1.30783 10.3834 1.97607 9.71484H1.979C2.64735 9.04635 3.53716 8.67773 4.479 8.67773C4.65016 8.67775 4.81943 8.69399 4.98584 8.71777L2.97803 5.61328C2.61657 5.05429 2.77817 4.30758 3.33447 3.94824C3.89103 3.58662 4.63797 3.748 4.99951 4.30469L6.1792 6.12988C5.93659 5.65167 5.79639 5.11104 5.79639 4.54004C5.79644 3.59557 6.16518 2.70562 6.8335 2.03711C7.50184 1.36864 8.38929 1 9.3335 1Z" fill="white"/>
<path d="M9.3335 1C11.2814 1.00013 12.8696 2.58723 12.8696 4.53809C12.8696 5.47999 12.5016 6.36963 11.8335 7.03809C11.1652 7.70658 10.2777 8.07611 9.3335 8.07617C8.23225 8.07617 7.24748 7.56863 6.59814 6.77637L7.57764 8.29199C9.42967 9.61559 11.3694 8.1771 11.3999 8.1543C11.5854 8.01155 11.8449 8.02364 12.0161 8.18066C12.3086 8.44943 12.5534 8.7491 12.7603 9.06543C13.2525 8.81328 13.7999 8.67486 14.3706 8.6748C16.3186 8.6748 17.9058 10.2624 17.9058 12.2109C17.9057 13.1553 17.5368 14.0425 16.8687 14.7109C16.2003 15.3795 15.3125 15.749 14.3706 15.749C12.8676 15.7489 11.5837 14.8015 11.0747 13.4766H7.7749C7.59894 13.9331 7.33067 14.3542 6.97412 14.7109C6.30576 15.3795 5.41796 15.749 4.47607 15.749C2.52832 15.7489 0.942084 14.1641 0.941895 12.2158C0.941895 11.2714 1.30783 10.3834 1.97607 9.71484H1.979C2.64735 9.04635 3.53716 8.67773 4.479 8.67773C4.65016 8.67775 4.81943 8.69399 4.98584 8.71777L2.97803 5.61328C2.61657 5.05429 2.77817 4.30758 3.33447 3.94824C3.89103 3.58662 4.63797 3.748 4.99951 4.30469L6.1792 6.12988C5.93659 5.65167 5.79639 5.11104 5.79639 4.54004C5.79644 3.59557 6.16518 2.70562 6.8335 2.03711C7.50184 1.36864 8.38929 1 9.3335 1Z" stroke="white"/>
<path d="M0.137953 21.0042C0.225958 21.0946 0.34964 21.1469 0.475701 21.1469H8.47461C8.73149 21.1469 8.9408 20.9423 8.95031 20.6854C8.95507 20.5593 9.03118 17.5782 7.15454 15.8604C6.98567 15.7057 6.72879 15.6939 6.54327 15.8318C6.45764 15.8961 4.44543 17.3902 2.53786 15.8366C2.35948 15.6891 2.10022 15.6939 1.92659 15.8461C1.85048 15.9127 0.0451916 17.5187 0 20.664C0 20.7924 0.0475701 20.9138 0.137953 21.0042Z" fill="white"/>
<path d="M16.4402 15.8318C16.3546 15.8961 14.3423 17.3902 12.4348 15.8366C12.2564 15.6891 11.9971 15.6939 11.8211 15.8461C11.745 15.9127 9.93972 17.5187 9.89453 20.664C9.89453 20.7924 9.9421 20.9138 10.0325 21.0042C10.1229 21.0946 10.2442 21.1469 10.3726 21.1469H18.3715C18.6284 21.1469 18.8377 20.9423 18.8472 20.6854C18.852 20.5593 18.9281 17.5782 17.0515 15.8604C16.8826 15.7057 16.6257 15.6939 16.4426 15.8318H16.4402Z" fill="white"/>
<path d="M1.97654 9.71495C1.30818 10.3835 0.941895 11.2709 0.941895 12.2155C0.941895 14.164 2.52836 15.7486 4.47635 15.7486C5.41824 15.7486 6.30542 15.3798 6.97378 14.7112C7.33056 14.3544 7.59933 13.9332 7.77534 13.4764H11.0743C11.5833 14.8016 12.8677 15.7486 14.3709 15.7486C15.3128 15.7486 16.2 15.3798 16.8684 14.7112C17.5367 14.0427 17.9054 13.1552 17.9054 12.2107C17.9054 10.2622 16.3189 8.67524 14.3709 8.67524C13.8001 8.67524 13.253 8.81324 12.7607 9.06543C12.5538 8.749 12.3088 8.44922 12.0162 8.18038C11.845 8.02335 11.5857 8.01145 11.4002 8.1542C11.3812 8.16848 9.43554 9.61978 7.57792 8.2922L6.59798 6.77666C7.24731 7.56893 8.23201 8.07569 9.33326 8.07569C10.2775 8.07569 11.1647 7.70692 11.8331 7.03837C12.5014 6.36982 12.8701 5.48 12.8701 4.53785C12.8701 2.58692 11.2813 1 9.33326 1C8.38899 1 7.50181 1.36877 6.83345 2.03732C6.16509 2.70587 5.79642 3.59569 5.79642 4.54022C5.79642 5.11123 5.93676 5.6513 6.17936 6.12952L4.99962 4.30469C4.63809 3.74796 3.89124 3.58617 3.33467 3.94781C2.7781 4.30707 2.61636 5.05413 2.9779 5.61324L4.98535 8.71807C4.81886 8.69428 4.64998 8.67762 4.47873 8.67762C3.53684 8.67762 2.64728 9.0464 1.97892 9.71495H1.97654ZM7.50895 2.71777C7.99654 2.23004 8.6435 1.96119 9.33326 1.96119C10.7556 1.96119 11.9116 3.11747 11.9139 4.54022C11.9139 5.22781 11.6452 5.87495 11.1576 6.36506C10.67 6.85279 10.023 7.12164 9.33326 7.12164C7.91092 7.12164 6.75258 5.96536 6.75258 4.5426C6.75258 3.85502 7.02135 3.2055 7.50895 2.71777ZM12.5442 10.3883C13.0318 9.90052 13.6812 9.6293 14.3709 9.6293C15.7933 9.6293 16.954 10.788 16.954 12.2131C16.954 12.9007 16.6852 13.5502 16.1952 14.0403C15.7077 14.528 15.0583 14.7993 14.3709 14.7993C12.9462 14.7993 11.7879 13.6406 11.7879 12.2178C11.7879 11.5279 12.0567 10.8807 12.5442 10.3906V10.3883ZM3.62961 5.19212C3.56776 5.09695 3.54636 4.98275 3.57014 4.87093C3.59393 4.75911 3.66053 4.66394 3.75567 4.60208C3.94833 4.47837 4.22185 4.53785 4.34554 4.72818L6.65269 8.29458L7.24493 9.21294L7.28299 9.24863C7.44711 9.34855 7.61598 9.43658 7.78248 9.51034C7.92043 9.56982 8.06552 9.62216 8.21536 9.66499C9.68766 10.0956 11.0363 9.48655 11.6238 9.1487C11.7546 9.29859 11.8711 9.45562 11.9758 9.62216C11.9425 9.65309 11.9068 9.68164 11.8735 9.71495C11.2051 10.3835 10.8365 11.2709 10.8365 12.2155C10.8365 12.3178 10.8436 12.4177 10.8531 12.5176H7.99654C8.00605 12.4177 8.01081 12.3154 8.01081 12.2107C8.01081 10.8712 7.26158 9.70305 6.16033 9.1035L6.11039 9.02499L3.62961 5.19212ZM7.05941 12.2131C7.05941 12.9007 6.79064 13.5502 6.30067 14.0403C5.81307 14.528 5.16374 14.7993 4.47635 14.7993C3.05163 14.7993 1.8933 13.6406 1.8933 12.2178C1.8933 11.5279 2.16207 10.8807 2.64966 10.3906C3.13725 9.9029 3.78659 9.63168 4.47635 9.63168C5.90108 9.63168 7.05941 10.7903 7.05941 12.2155V12.2131Z" fill="#1B303E"/>
<path d="M0.137953 21.0042C0.225958 21.0946 0.34964 21.1469 0.475701 21.1469H8.47461C8.73149 21.1469 8.9408 20.9423 8.95031 20.6854C8.95507 20.5593 9.03118 17.5782 7.15454 15.8604C6.98567 15.7057 6.72879 15.6939 6.54327 15.8318C6.45764 15.8961 4.44543 17.3902 2.53786 15.8366C2.35948 15.6891 2.10022 15.6939 1.92659 15.8461C1.85048 15.9127 0.0451916 17.5187 0 20.664C0 20.7924 0.0475701 20.9138 0.137953 21.0042ZM2.29288 16.8359C3.97448 17.9469 5.77501 17.4211 6.76923 16.8263C7.70873 17.8946 7.92994 19.4339 7.98226 20.1953H0.975187C1.12028 18.4323 1.88378 17.3188 2.29288 16.8382V16.8359Z" fill="#1B303E"/>
<path d="M16.4402 15.8318C16.3546 15.8961 14.3423 17.3902 12.4348 15.8366C12.2564 15.6891 11.9971 15.6939 11.8211 15.8461C11.745 15.9127 9.93972 17.5187 9.89453 20.664C9.89453 20.7924 9.9421 20.9138 10.0325 21.0042C10.1229 21.0946 10.2442 21.1469 10.3726 21.1469H18.3715C18.6284 21.1469 18.8377 20.9423 18.8472 20.6854C18.852 20.5593 18.9281 17.5782 17.0515 15.8604C16.8826 15.7057 16.6257 15.6939 16.4426 15.8318H16.4402ZM17.8792 20.1929H10.8697C11.0148 18.4299 11.7783 17.3165 12.1898 16.8359C13.869 17.9469 15.6719 17.4211 16.6661 16.8263C17.6056 17.8946 17.8268 19.4339 17.8792 20.1953V20.1929Z" fill="#1B303E"/>
</g>
<defs>
<clipPath id="clip0_764_51864">
<rect width="22" height="21" fill="white"/>
</clipPath>
</defs>
</svg>
