<svg width="15" height="18" viewBox="0 0 15 18" fill="none" xmlns="http://www.w3.org/2000/svg">
<path d="M14.0942 5.81621V14.0943C14.0942 16.6415 12.5744 17.4905 10.698 17.4905H3.9057C2.02932 17.4905 0.509537 16.6415 0.509537 14.0943L0.509537 5.81621C0.509537 3.05683 2.02932 2.42005 3.9057 2.42005C3.9057 2.94646 4.11793 3.42192 4.46604 3.77003C4.81414 4.11813 5.28963 4.33039 5.81603 4.33039H8.78767C9.84048 4.33039 10.698 3.47286 10.698 2.42005C12.5744 2.42005 14.0942 3.05683 14.0942 5.81621Z" stroke="#1B303E" stroke-linecap="round" stroke-linejoin="round"/>
<path d="M10.6981 2.41988C10.6981 3.47268 9.84053 4.33021 8.78772 4.33021H5.81609C5.28968 4.33021 4.81419 4.11795 4.46609 3.76985C4.11798 3.42174 3.90575 2.94628 3.90575 2.41988C3.90575 1.36707 4.76328 0.509537 5.81609 0.509537H8.78772C9.31413 0.509537 9.78959 0.721797 10.1377 1.0699C10.4858 1.41801 10.6981 1.89347 10.6981 2.41988Z" stroke="#1B303E" stroke-linecap="round" stroke-linejoin="round"/>
<path d="M3.90575 9.84902H7.30191" stroke="#1B303E" stroke-linecap="round" stroke-linejoin="round"/>
<path d="M3.90575 13.245H10.6981" stroke="#1B303E" stroke-linecap="round" stroke-linejoin="round"/>
</svg>
