<svg width="17" height="17" viewBox="0 0 17 17" fill="none" xmlns="http://www.w3.org/2000/svg">
<path d="M5.03198 9.7492C6.23047 9.7492 7.19096 10.719 7.19096 11.926V14.8237C7.19096 16.0222 6.23047 16.9997 5.03198 16.9997H2.15899C0.968995 16.9997 0 16.0222 0 14.8237L0 11.926C0 10.719 0.968995 9.7492 2.15899 9.7492L5.03198 9.7492ZM14.841 9.7492C16.031 9.7492 17 10.719 17 11.926V14.8237C17 16.0222 16.031 16.9997 14.841 16.9997H11.968C10.7695 16.9997 9.80904 16.0222 9.80904 14.8237V11.926C9.80904 10.719 10.7695 9.7492 11.968 9.7492L14.841 9.7492ZM5.03198 0C6.23047 0 7.19096 0.977496 7.19096 2.17684V5.07448C7.19096 6.28147 6.23047 7.25047 5.03198 7.25047L2.15899 7.25047C0.968995 7.25047 0 6.28147 0 5.07448L0 2.17684C0 0.977496 0.968995 0 2.15899 0L5.03198 0ZM14.841 0C16.031 0 17 0.977496 17 2.17684V5.07448C17 6.28147 16.031 7.25047 14.841 7.25047H11.968C10.7695 7.25047 9.80904 6.28147 9.80904 5.07448L9.80904 2.17684C9.80904 0.977496 10.7695 0 11.968 0L14.841 0Z" fill="#1A1A1A"/>
</svg>
