<svg width="23" height="22" viewBox="0 0 23 22" fill="none" xmlns="http://www.w3.org/2000/svg">
<path d="M8.25113 21.2982H14.7489C20.1637 21.2982 22.3296 19.2354 22.3296 14.0785V7.89014C22.3296 2.7332 20.1637 0.670427 14.7489 0.670427L8.25113 0.670427C2.83634 0.670427 0.670427 2.7332 0.670427 7.89014L0.670427 14.0785C0.670427 19.2354 2.83634 21.2982 8.25113 21.2982Z" fill="white" stroke="#1B303E" stroke-width="1.3" stroke-linecap="round" stroke-linejoin="round"/>
<path d="M11.9006 7.76619H17.5861H11.9006Z" fill="white"/>
<path d="M11.9006 7.76619H17.5861" stroke="#1B303E" stroke-width="1.3" stroke-linecap="round" stroke-linejoin="round"/>
<path d="M5.41378 7.76625L6.226 8.5398L8.66265 6.21917" fill="white"/>
<path d="M5.41378 7.76625L6.226 8.5398L8.66265 6.21917" stroke="#1B303E" stroke-width="1.3" stroke-linecap="round" stroke-linejoin="round"/>
<path d="M11.9006 14.986H17.5861H11.9006Z" fill="white"/>
<path d="M11.9006 14.986H17.5861" stroke="#1B303E" stroke-width="1.3" stroke-linecap="round" stroke-linejoin="round"/>
<path d="M5.41378 14.986L6.226 15.7595L8.66265 13.4389" fill="white"/>
<path d="M5.41378 14.986L6.226 15.7595L8.66265 13.4389" stroke="#1B303E" stroke-width="1.3" stroke-linecap="round" stroke-linejoin="round"/>
</svg>
