<svg width="17" height="19" viewBox="0 0 17 19" fill="none" xmlns="http://www.w3.org/2000/svg">
<path d="M16.1621 8.10745L13.7216 16.02C12.9707 18.4547 11.2677 18.8182 9.47418 18.265L2.9818 16.2625C1.18829 15.7093 -0.0140751 14.4497 0.736847 12.0151L3.17734 4.10253C3.99084 1.46501 5.63124 1.3044 7.42476 1.85758C7.26957 2.36073 7.33226 2.87777 7.56237 3.31313C7.79248 3.74849 8.18439 4.09156 8.68755 4.24675L11.528 5.12282C12.5343 5.4332 13.6068 4.86635 13.9171 3.86003C15.7107 4.41321 16.9756 5.46992 16.1621 8.10745Z" fill="white" stroke="#1B303E" stroke-linecap="round" stroke-linejoin="round"/>
<path d="M13.9173 3.86004C13.6069 4.86636 12.5344 5.43321 11.5281 5.12283L8.68768 4.24676C8.18452 4.09157 7.7926 3.7485 7.5625 3.31314C7.33239 2.87778 7.2697 2.36074 7.42489 1.85759C7.73527 0.851268 8.80774 0.284416 9.81406 0.594798L12.6545 1.47087C13.1576 1.62606 13.5495 1.96912 13.7796 2.40448C14.0097 2.83984 14.0725 3.35689 13.9173 3.86004Z" fill="white" stroke="#1B303E" stroke-linecap="round" stroke-linejoin="round"/>
<path d="M5.23451 8.95853L8.4807 9.95976L5.23451 8.95853Z" fill="white"/>
<path d="M5.23451 8.95853L8.4807 9.95976" stroke="#1B303E" stroke-linecap="round" stroke-linejoin="round"/>
<path d="M4.23332 12.2049L10.7257 14.2073L4.23332 12.2049Z" fill="white"/>
<path d="M4.23332 12.2049L10.7257 14.2073" stroke="#1B303E" stroke-linecap="round" stroke-linejoin="round"/>
</svg>
