<svg width="20" height="22" viewBox="0 0 20 22" fill="none" xmlns="http://www.w3.org/2000/svg">
<path d="M5.88372 4.60465C5.46419 4.60465 5.11628 4.25675 5.11628 3.83721V0.767442C5.11628 0.347907 5.46419 0 5.88372 0C6.30326 0 6.65117 0.347907 6.65117 0.767442V3.83721C6.65117 4.25675 6.30326 4.60465 5.88372 4.60465Z" fill="#1B303E"/>
<path d="M14.0698 4.60465C13.6502 4.60465 13.3023 4.25675 13.3023 3.83721V0.767442C13.3023 0.347907 13.6502 0 14.0698 0C14.4893 0 14.8372 0.347907 14.8372 0.767442V3.83721C14.8372 4.25675 14.4893 4.60465 14.0698 4.60465Z" fill="#1B303E"/>
<path d="M0.944523 6.80056C0.944523 3.47584 4.21887 2.39279 5.85604 2.26685H15.1124C17.5303 2.26685 18.7645 4.78558 19.0794 6.04495V17.757C19.0794 19.5705 16.3088 20.9054 14.9235 21.3462H5.85604C2.53132 21.3462 1.1964 18.9534 0.944523 17.757V6.80056Z" fill="white"/>
<path d="M13.0465 22H6.90698C1.15628 22 0 19.2884 0 14.9089V8.59536C0 3.74513 1.63721 1.77024 5.84279 1.5349H14.1107C18.3163 1.77024 19.9535 3.74513 19.9535 8.59536V14.9089C19.9535 19.2884 18.7972 22 13.0465 22ZM5.88372 3.06978C3.01861 3.2335 1.53488 4.13397 1.53488 8.59536V14.9089C1.53488 18.8279 2.28186 20.4651 6.90698 20.4651H13.0465C17.6716 20.4651 18.4186 18.8279 18.4186 14.9089V8.59536C18.4186 4.1442 16.9451 3.2335 14.0493 3.06978H5.88372Z" fill="#1B303E"/>
<path d="M18.9303 17.4977H1.02331C0.603777 17.4977 0.25587 17.1498 0.25587 16.7303C0.25587 16.3107 0.603777 15.9628 1.02331 15.9628H18.9303C19.3498 15.9628 19.6977 16.3107 19.6977 16.7303C19.6977 17.1498 19.3498 17.4977 18.9303 17.4977Z" fill="#1B303E"/>
<path d="M9.97679 7.16271C8.71818 7.16271 7.65399 7.84829 7.65399 9.17853C7.65399 9.81295 7.95074 10.2939 8.40097 10.6009C7.77678 10.9692 7.41864 11.5627 7.41864 12.2585C7.41864 13.5274 8.39074 14.3153 9.97679 14.3153C11.5526 14.3153 12.5349 13.5274 12.5349 12.2585C12.5349 11.5627 12.1768 10.959 11.5424 10.6009C12.0028 10.2836 12.2893 9.81295 12.2893 9.17853C12.2893 7.84829 11.2354 7.16271 9.97679 7.16271ZM9.97679 10.0688C9.44469 10.0688 9.05585 9.75155 9.05585 9.25015C9.05585 8.73853 9.44469 8.44178 9.97679 8.44178C10.5089 8.44178 10.8977 8.73853 10.8977 9.25015C10.8977 9.75155 10.5089 10.0688 9.97679 10.0688ZM9.97679 13.0464C9.30144 13.0464 8.81027 12.7088 8.81027 12.0948C8.81027 11.4809 9.30144 11.1534 9.97679 11.1534C10.6521 11.1534 11.1433 11.4911 11.1433 12.0948C11.1433 12.7088 10.6521 13.0464 9.97679 13.0464Z" fill="#1B303E"/>
</svg>
