<svg width="22" height="21" viewBox="0 0 22 21" fill="none" xmlns="http://www.w3.org/2000/svg">
<g clip-path="url(#clip0_764_51856)">
<g clip-path="url(#clip1_764_51856)">
<path d="M9.30908 0.356812C11.257 0.356939 12.8452 1.94405 12.8452 3.8949C12.8452 4.8368 12.4772 5.72644 11.8091 6.3949C11.1408 7.06339 10.2533 7.43292 9.30908 7.43298C8.20783 7.43298 7.22306 6.92545 6.57373 6.13318L7.55322 7.6488C9.40526 8.9724 11.345 7.53391 11.3755 7.51111C11.561 7.36836 11.8204 7.38045 11.9917 7.53748C12.2842 7.80625 12.529 8.10591 12.7358 8.42224C13.2281 8.1701 13.7755 8.03167 14.3462 8.03162C16.2942 8.03162 17.8813 9.6192 17.8813 11.5677C17.8813 12.5121 17.5124 13.3993 16.8442 14.0677C16.1759 14.7363 15.2881 15.1058 14.3462 15.1058C12.8432 15.1057 11.5593 14.1584 11.0503 12.8334H7.75049C7.57453 13.2899 7.30626 13.711 6.94971 14.0677C6.28135 14.7363 5.39355 15.1058 4.45166 15.1058C2.50391 15.1057 0.91767 13.5209 0.91748 11.5726C0.91748 10.6282 1.28342 9.74018 1.95166 9.07166H1.95459C2.62294 8.40316 3.51275 8.03455 4.45459 8.03455C4.62575 8.03456 4.79502 8.05081 4.96143 8.07458L2.95361 4.97009C2.59215 4.4111 2.75376 3.66439 3.31006 3.30505C3.86661 2.94343 4.61355 3.10481 4.9751 3.6615L6.15479 5.48669C5.91218 5.00848 5.77197 4.46785 5.77197 3.89685C5.77202 2.95238 6.14077 2.06243 6.80908 1.39392C7.47743 0.725452 8.36488 0.356812 9.30908 0.356812Z" fill="white"/>
<path d="M9.30908 0.356812C11.257 0.356939 12.8452 1.94405 12.8452 3.8949C12.8452 4.8368 12.4772 5.72644 11.8091 6.3949C11.1408 7.06339 10.2533 7.43292 9.30908 7.43298C8.20783 7.43298 7.22306 6.92545 6.57373 6.13318L7.55322 7.6488C9.40526 8.9724 11.345 7.53391 11.3755 7.51111C11.561 7.36836 11.8204 7.38045 11.9917 7.53748C12.2842 7.80625 12.529 8.10591 12.7358 8.42224C13.2281 8.1701 13.7755 8.03167 14.3462 8.03162C16.2942 8.03162 17.8813 9.6192 17.8813 11.5677C17.8813 12.5121 17.5124 13.3993 16.8442 14.0677C16.1759 14.7363 15.2881 15.1058 14.3462 15.1058C12.8432 15.1057 11.5593 14.1584 11.0503 12.8334H7.75049C7.57453 13.2899 7.30626 13.711 6.94971 14.0677C6.28135 14.7363 5.39355 15.1058 4.45166 15.1058C2.50391 15.1057 0.91767 13.5209 0.91748 11.5726C0.91748 10.6282 1.28342 9.74018 1.95166 9.07166H1.95459C2.62294 8.40316 3.51275 8.03455 4.45459 8.03455C4.62575 8.03456 4.79502 8.05081 4.96143 8.07458L2.95361 4.97009C2.59215 4.4111 2.75376 3.66439 3.31006 3.30505C3.86661 2.94343 4.61355 3.10481 4.9751 3.6615L6.15479 5.48669C5.91218 5.00848 5.77197 4.46785 5.77197 3.89685C5.77202 2.95238 6.14077 2.06243 6.80908 1.39392C7.47743 0.725452 8.36488 0.356812 9.30908 0.356812Z" stroke="white"/>
<path d="M0.113539 20.361C0.201544 20.4514 0.325226 20.5038 0.451287 20.5038H8.4502C8.70708 20.5038 8.91639 20.2991 8.9259 20.0422C8.93066 19.9161 9.00677 16.935 7.13013 15.2172C6.96126 15.0626 6.70438 15.0507 6.51885 15.1887C6.43323 15.2529 4.42101 16.747 2.51345 15.1934C2.33506 15.0459 2.07581 15.0507 1.90218 15.2029C1.82606 15.2695 0.0207775 16.8755 -0.0244141 20.0208C-0.0244141 20.1493 0.023156 20.2706 0.113539 20.361Z" fill="white"/>
<path d="M16.4158 15.1887C16.3301 15.2529 14.3179 16.747 12.4104 15.1934C12.232 15.0459 11.9727 15.0507 11.7967 15.2029C11.7206 15.2695 9.91531 16.8755 9.87012 20.0208C9.87012 20.1493 9.91769 20.2706 10.0081 20.361C10.0985 20.4514 10.2198 20.5038 10.3482 20.5038H18.3471C18.604 20.5038 18.8133 20.2991 18.8228 20.0422C18.8276 19.9161 18.9037 16.935 17.027 15.2172C16.8582 15.0626 16.6013 15.0507 16.4181 15.1887H16.4158Z" fill="white"/>
<path d="M1.95213 9.07176C1.28377 9.74031 0.91748 10.6277 0.91748 11.5723C0.91748 13.5208 2.50394 15.1054 4.45194 15.1054C5.39383 15.1054 6.28101 14.7366 6.94937 14.068C7.30615 13.7112 7.57492 13.2901 7.75093 12.8332H11.0499C11.5589 14.1585 12.8433 15.1054 14.3465 15.1054C15.2884 15.1054 16.1756 14.7366 16.844 14.068C17.5123 13.3995 17.881 12.5121 17.881 11.5675C17.881 9.61897 16.2945 8.03206 14.3465 8.03206C13.7757 8.03206 13.2286 8.17005 12.7363 8.42224C12.5293 8.10581 12.2844 7.80603 11.9918 7.53719C11.8205 7.38016 11.5613 7.36826 11.3758 7.51102C11.3567 7.52529 9.41112 8.97659 7.55351 7.64901L6.57357 6.13347C7.2229 6.92574 8.2076 7.4325 9.30885 7.4325C10.2531 7.4325 11.1403 7.06373 11.8087 6.39518C12.477 5.72663 12.8457 4.83681 12.8457 3.89466C12.8457 1.94373 11.2568 0.356812 9.30885 0.356812C8.36458 0.356812 7.4774 0.725585 6.80904 1.39414C6.14068 2.06269 5.77201 2.9525 5.77201 3.89704C5.77201 4.46804 5.91234 5.00811 6.15495 5.48633L4.97521 3.6615C4.61368 3.10477 3.86683 2.94298 3.31026 3.30462C2.75369 3.66388 2.59195 4.41094 2.95348 4.97005L4.96094 8.07488C4.79444 8.05109 4.62557 8.03444 4.45432 8.03444C3.51243 8.03444 2.62287 8.40321 1.95451 9.07176H1.95213ZM7.48453 2.07458C7.97213 1.58685 8.61908 1.318 9.30885 1.318C10.7312 1.318 11.8871 2.47428 11.8895 3.89704C11.8895 4.58462 11.6208 5.23176 11.1332 5.72187C10.6456 6.2096 9.99861 6.47845 9.30885 6.47845C7.8865 6.47845 6.72817 5.32217 6.72817 3.89942C6.72817 3.21183 6.99694 2.56231 7.48453 2.07458ZM12.5198 9.74507C13.0074 9.25734 13.6568 8.98611 14.3465 8.98611C15.7689 8.98611 16.9296 10.1448 16.9296 11.5699C16.9296 12.2575 16.6608 12.907 16.1708 13.3971C15.6832 13.8848 15.0339 14.1561 14.3465 14.1561C12.9218 14.1561 11.7635 12.9974 11.7635 11.5747C11.7635 10.8847 12.0322 10.2376 12.5198 9.74745V9.74507ZM3.60519 4.54893C3.54335 4.45377 3.52194 4.33956 3.54573 4.22774C3.56951 4.11592 3.63611 4.02075 3.73125 3.9589C3.92391 3.83518 4.19744 3.89466 4.32112 4.08499L6.62827 7.65139L7.22052 8.56975L7.25858 8.60544C7.42269 8.70537 7.59157 8.7934 7.75806 8.86715C7.89602 8.92663 8.0411 8.97897 8.19095 9.0218C9.66324 9.45243 11.0119 8.84336 11.5993 8.50551C11.7302 8.6554 11.8467 8.81243 11.9514 8.97897C11.9181 9.0099 11.8824 9.03845 11.8491 9.07176C11.1807 9.74031 10.8121 10.6277 10.8121 11.5723C10.8121 11.6746 10.8192 11.7745 10.8287 11.8744H7.97213C7.98164 11.7745 7.9864 11.6722 7.9864 11.5675C7.9864 10.228 7.23717 9.05986 6.13592 8.46031L6.08597 8.3818L3.60519 4.54893ZM7.035 11.5699C7.035 12.2575 6.76622 12.907 6.27625 13.3971C5.78866 13.8848 5.13933 14.1561 4.45194 14.1561C3.02721 14.1561 1.86888 12.9974 1.86888 11.5747C1.86888 10.8847 2.13765 10.2376 2.62525 9.74745C3.11284 9.25972 3.76217 8.98849 4.45194 8.98849C5.87666 8.98849 7.035 10.1472 7.035 11.5723V11.5699Z" fill="#1B303E"/>
<path d="M0.113539 20.361C0.201544 20.4514 0.325226 20.5038 0.451287 20.5038H8.4502C8.70708 20.5038 8.91639 20.2991 8.9259 20.0422C8.93066 19.9161 9.00677 16.935 7.13013 15.2172C6.96126 15.0626 6.70438 15.0507 6.51885 15.1887C6.43323 15.2529 4.42101 16.747 2.51345 15.1934C2.33506 15.0459 2.07581 15.0507 1.90218 15.2029C1.82606 15.2695 0.0207775 16.8755 -0.0244141 20.0208C-0.0244141 20.1493 0.023156 20.2706 0.113539 20.361ZM2.26846 16.1927C3.95007 17.3038 5.7506 16.778 6.74481 16.1832C7.68432 17.2514 7.90552 18.7907 7.95785 19.5521H0.950773C1.09586 17.7891 1.85936 16.6756 2.26846 16.1951V16.1927Z" fill="#1B303E"/>
<path d="M16.4158 15.1887C16.3301 15.2529 14.3179 16.747 12.4104 15.1934C12.232 15.0459 11.9727 15.0507 11.7967 15.2029C11.7206 15.2695 9.91531 16.8755 9.87012 20.0208C9.87012 20.1493 9.91769 20.2706 10.0081 20.361C10.0985 20.4514 10.2198 20.5038 10.3482 20.5038H18.3471C18.604 20.5038 18.8133 20.2991 18.8228 20.0422C18.8276 19.9161 18.9037 16.935 17.027 15.2172C16.8582 15.0626 16.6013 15.0507 16.4181 15.1887H16.4158ZM17.8548 19.5497H10.8453C10.9904 17.7867 11.7539 16.6733 12.1654 16.1927C13.8446 17.3038 15.6475 16.778 16.6417 16.1832C17.5812 17.2514 17.8024 18.7907 17.8548 19.5521V19.5497Z" fill="#1B303E"/>
</g>
</g>
<defs>
<clipPath id="clip0_764_51856">
<rect width="22" height="21" fill="white"/>
</clipPath>
<clipPath id="clip1_764_51856">
<rect width="22" height="21" fill="white" transform="translate(-0.0244141 -0.643188)"/>
</clipPath>
</defs>
</svg>
