<svg width="16" height="17" viewBox="0 0 16 17" fill="none" xmlns="http://www.w3.org/2000/svg">
<path d="M8.60399 0C9.24083 0 9.81743 0.353685 10.1359 0.875791C10.2908 1.12842 10.394 1.44 10.3682 1.76842C10.351 2.02106 10.4285 2.27369 10.5662 2.50948C11.0051 3.22527 11.9775 3.49474 12.7349 3.09053C13.5868 2.60211 14.6626 2.89685 15.1531 3.73053L15.7297 4.72422C16.2289 5.5579 15.9535 6.62738 15.0929 7.10738C14.3614 7.53685 14.1032 8.48843 14.5421 9.21264C14.6798 9.44001 14.8347 9.6337 15.0757 9.75159C15.3769 9.91159 15.6093 10.1642 15.7728 10.4169C16.0912 10.939 16.0654 11.579 15.7556 12.1432L15.1531 13.1537C14.8347 13.6926 14.2409 14.0295 13.6299 14.0295C13.3287 14.0295 12.993 13.9453 12.7176 13.7769C12.4939 13.6337 12.2357 13.5832 11.9603 13.5832C11.1083 13.5832 10.394 14.2821 10.3682 15.1158C10.3682 16.0842 9.57647 16.8421 8.58678 16.8421H7.41637C6.41808 16.8421 5.62633 16.0842 5.62633 15.1158C5.60911 14.2821 4.89482 13.5832 4.04283 13.5832C3.75883 13.5832 3.50065 13.6337 3.2855 13.7769C3.01011 13.9453 2.66587 14.0295 2.37327 14.0295C1.75364 14.0295 1.15983 13.6926 0.841408 13.1537L0.247596 12.1432C-0.0708249 11.5958 -0.0880368 10.939 0.230384 10.4169C0.36808 10.1642 0.626259 9.91159 0.918862 9.75159C1.15983 9.6337 1.31474 9.44001 1.46104 9.21264C1.89134 8.48843 1.63316 7.53685 0.90165 7.10738C0.0496587 6.62738 -0.225732 5.5579 0.264808 4.72422L0.841408 3.73053C1.34055 2.89685 2.40769 2.60211 3.26829 3.09053C4.01701 3.49474 4.98948 3.22527 5.42839 2.50948C5.56608 2.27369 5.64354 2.02106 5.62633 1.76842C5.60911 1.44 5.70378 1.12842 5.86729 0.875791C6.18571 0.353685 6.76231 0.0168421 7.39055 0L8.60399 0ZM8.01018 6.04632C6.65904 6.04632 5.56608 7.10738 5.56608 8.42948C5.56608 9.75159 6.65904 10.8042 8.01018 10.8042C9.36132 10.8042 10.4285 9.75159 10.4285 8.42948C10.4285 7.10738 9.36132 6.04632 8.01018 6.04632Z" fill="#1B303E"/>
</svg>
