<svg width="22" height="18" viewBox="0 0 22 18" fill="none" xmlns="http://www.w3.org/2000/svg">
<path d="M13.16 7.4L8.16 3.83C7.46 3.33 6.53 3.33 5.84 3.83L0.84 7.4C0.31 7.78 0 8.38 0 9.03V17C0 17.55 0.45 18 1 18H5V12H9V18H13C13.55 18 14 17.55 14 17V9.03C14 8.38 13.69 7.78 13.16 7.4Z" fill="#FC987E"/>
<path d="M20.03 0H10.97C9.88 0 9 0.88 9 1.97L9.09 2.06C9.17 2.11 9.25 2.15 9.33 2.2L14.33 5.77C15.09 6.31 15.63 7.11 15.87 8H18V10H16V12H18V14H16V18H20.03C21.12 18 22 17.12 22 16.03V1.97C22 0.88 21.12 0 20.03 0ZM18 6H16V4H18V6Z" fill="#FC987E"/>
</svg>
