<svg width="17" height="17" viewBox="0 0 17 17" fill="none" xmlns="http://www.w3.org/2000/svg">
<path d="M5.03197 9.74919C6.23046 9.74919 7.19095 10.719 7.19095 11.926V14.8237C7.19095 16.0221 6.23046 16.9996 5.03197 16.9996H2.15899C0.968994 16.9996 0 16.0221 0 14.8237L0 11.926C0 10.719 0.968994 9.74919 2.15899 9.74919L5.03197 9.74919ZM14.841 9.74919C16.031 9.74919 17 10.719 17 11.926V14.8237C17 16.0221 16.031 16.9996 14.841 16.9996H11.968C10.7695 16.9996 9.80902 16.0221 9.80902 14.8237V11.926C9.80902 10.719 10.7695 9.74919 11.968 9.74919L14.841 9.74919ZM5.03197 0C6.23046 0 7.19095 0.977494 7.19095 2.17684V5.07447C7.19095 6.28146 6.23046 7.25046 5.03197 7.25046L2.15899 7.25046C0.968994 7.25046 0 6.28146 0 5.07447L0 2.17684C0 0.977494 0.968994 0 2.15899 0L5.03197 0ZM14.841 0C16.031 0 17 0.977494 17 2.17684V5.07447C17 6.28146 16.031 7.25046 14.841 7.25046H11.968C10.7695 7.25046 9.80902 6.28146 9.80902 5.07447L9.80902 2.17684C9.80902 0.977494 10.7695 0 11.968 0L14.841 0Z" fill="#1A1A1A"/>
</svg>
