<svg width="19" height="21" viewBox="0 0 19 21" fill="none" xmlns="http://www.w3.org/2000/svg">
<path d="M9.40839 0C11.3719 0.000128428 12.9729 1.59997 12.9729 3.56648C12.9728 4.51594 12.6019 5.41272 11.9284 6.08654C11.2548 6.7604 10.3601 7.13289 9.40839 7.13295C8.29831 7.13295 7.30563 6.62134 6.65109 5.82272L7.63844 7.3505C9.50534 8.68472 11.4606 7.23469 11.4914 7.2117C11.6784 7.06781 11.9399 7.08 12.1125 7.23828C12.4073 7.50921 12.6541 7.81128 12.8626 8.13015C13.3588 7.87598 13.9106 7.73644 14.4859 7.73639C16.4495 7.73639 18.0494 9.33671 18.0494 11.3009C18.0494 12.2528 17.6775 13.1471 17.004 13.821C16.3303 14.4949 15.4354 14.8674 14.4859 14.8674C12.9709 14.8672 11.6767 13.9123 11.1636 12.5767H7.83729C7.65992 13.0369 7.3895 13.4614 7.03008 13.821C6.35636 14.4949 5.46144 14.8674 4.51199 14.8674C2.54861 14.8672 0.949644 13.2697 0.949452 11.3058C0.949452 10.3538 1.31832 9.45867 1.99193 8.78477H1.99488C2.6686 8.11092 3.56554 7.73934 4.51494 7.73934C4.68748 7.73936 4.8581 7.75573 5.02585 7.7797L3.00192 4.6503C2.63756 4.08682 2.80047 3.33412 3.36123 2.9719C3.92225 2.60737 4.67518 2.77005 5.03963 3.3312L6.22878 5.17105C5.98423 4.68899 5.8429 4.14403 5.8429 3.56844C5.84295 2.6164 6.21465 1.7193 6.88833 1.04543C7.56204 0.371599 8.45661 0 9.40839 0Z" fill="white"/>
<path d="M9.40839 0C11.3719 0.000128428 12.9729 1.59997 12.9729 3.56648C12.9728 4.51594 12.6019 5.41272 11.9284 6.08654C11.2548 6.7604 10.3601 7.13289 9.40839 7.13295C8.29831 7.13295 7.30563 6.62134 6.65109 5.82272L7.63844 7.3505C9.50534 8.68472 11.4606 7.23469 11.4914 7.2117C11.6784 7.06781 11.9399 7.08 12.1125 7.23828C12.4073 7.50921 12.6541 7.81128 12.8626 8.13015C13.3588 7.87598 13.9106 7.73644 14.4859 7.73639C16.4495 7.73639 18.0494 9.33671 18.0494 11.3009C18.0494 12.2528 17.6775 13.1471 17.004 13.821C16.3303 14.4949 15.4354 14.8674 14.4859 14.8674C12.9709 14.8672 11.6767 13.9123 11.1636 12.5767H7.83729C7.65992 13.0369 7.3895 13.4614 7.03008 13.821C6.35636 14.4949 5.46144 14.8674 4.51199 14.8674C2.54861 14.8672 0.949644 13.2697 0.949452 11.3058C0.949452 10.3538 1.31832 9.45867 1.99193 8.78477H1.99488C2.6686 8.11092 3.56554 7.73934 4.51494 7.73934C4.68748 7.73936 4.8581 7.75573 5.02585 7.7797L3.00192 4.6503C2.63756 4.08682 2.80047 3.33412 3.36123 2.9719C3.92225 2.60737 4.67518 2.77005 5.03963 3.3312L6.22878 5.17105C5.98423 4.68899 5.8429 4.14403 5.8429 3.56844C5.84295 2.6164 6.21465 1.7193 6.88833 1.04543C7.56204 0.371599 8.45661 0 9.40839 0Z" stroke="white"/>
<path d="M0.13906 20.1647C0.227771 20.2558 0.352446 20.3086 0.479518 20.3086H8.54261C8.80155 20.3086 9.01254 20.1024 9.02213 19.8433C9.02693 19.7162 9.10365 16.7112 7.21195 14.9796C7.04172 14.8238 6.78278 14.8118 6.59577 14.9509C6.50946 15.0156 4.4811 16.5217 2.55823 14.9557C2.37841 14.807 2.11707 14.8118 1.94205 14.9652C1.86533 15.0324 0.0455542 16.6512 0 19.8218C0 19.9513 0.0479518 20.0736 0.13906 20.1647Z" fill="white"/>
<path d="M16.5721 14.9509C16.4858 15.0156 14.4574 16.5217 12.5346 14.9557C12.3547 14.807 12.0934 14.8118 11.916 14.9652C11.8393 15.0324 10.0195 16.6512 9.97393 19.8218C9.97393 19.9513 10.0219 20.0736 10.113 20.1647C10.2041 20.2558 10.3264 20.3086 10.4558 20.3086H18.5189C18.7779 20.3086 18.9889 20.1024 18.9985 19.8433C19.0033 19.7162 19.08 16.7112 17.1883 14.9796C17.018 14.8238 16.7591 14.8118 16.5745 14.9509H16.5721Z" fill="white"/>
<path d="M1.9924 8.78488C1.31868 9.45879 0.949452 10.3533 0.949452 11.3055C0.949452 13.2697 2.54865 14.8669 4.51227 14.8669C5.46172 14.8669 6.35602 14.4952 7.02974 13.8213C7.38938 13.4615 7.66031 13.037 7.83773 12.5765H11.1632C11.6763 13.9124 12.971 14.8669 14.4862 14.8669C15.4357 14.8669 16.33 14.4952 17.0037 13.8213C17.6774 13.1473 18.0491 12.2528 18.0491 11.3007C18.0491 9.33648 16.4499 7.73683 14.4862 7.73683C13.9108 7.73683 13.3594 7.87593 12.8631 8.13015C12.6545 7.81118 12.4075 7.509 12.1126 7.23799C11.94 7.07971 11.6787 7.06771 11.4917 7.21161C11.4725 7.226 9.51125 8.68895 7.63873 7.35071L6.65092 5.82301C7.30547 6.62164 8.29807 7.13247 9.40815 7.13247C10.36 7.13247 11.2543 6.76074 11.928 6.08682C12.6017 5.41291 12.9734 4.51595 12.9734 3.56623C12.9734 1.59965 11.3718 0 9.40815 0C8.45631 0 7.56201 0.371733 6.88828 1.04565C6.21456 1.71956 5.84293 2.61652 5.84293 3.56863C5.84293 4.14422 5.98439 4.68863 6.22895 5.17068L5.03974 3.3312C4.67531 2.77001 3.92246 2.60692 3.36143 2.97146C2.80039 3.3336 2.63736 4.08666 3.00179 4.65025L5.02536 7.78C4.85753 7.75602 4.6873 7.73923 4.51467 7.73923C3.56522 7.73923 2.66852 8.11096 1.9948 8.78488H1.9924ZM7.5692 1.73155C8.06071 1.23991 8.71285 0.968903 9.40815 0.968903C10.8419 0.968903 12.0071 2.13446 12.0095 3.56863C12.0095 4.26173 11.7386 4.91406 11.2471 5.40811C10.7556 5.89975 10.1035 6.17076 9.40815 6.17076C7.97439 6.17076 6.80677 5.0052 6.80677 3.57103C6.80677 2.87793 7.07769 2.2232 7.5692 1.73155ZM12.6449 9.46359C13.1364 8.97194 13.7909 8.69854 14.4862 8.69854C15.92 8.69854 17.09 9.8665 17.09 11.3031C17.09 11.9962 16.8191 12.6509 16.3252 13.1449C15.8337 13.6366 15.1792 13.91 14.4862 13.91C13.0501 13.91 11.8825 12.742 11.8825 11.3079C11.8825 10.6124 12.1534 9.96003 12.6449 9.46599V9.46359ZM3.65873 4.22576C3.59639 4.12983 3.57481 4.01471 3.59879 3.90199C3.62277 3.78927 3.6899 3.69334 3.7858 3.63099C3.98001 3.50628 4.25573 3.56623 4.3804 3.7581L6.70607 7.35311L7.30307 8.27884L7.34143 8.31482C7.50686 8.41554 7.67709 8.50428 7.84492 8.57863C7.98398 8.63858 8.13024 8.69135 8.28129 8.73451C9.76539 9.1686 11.1248 8.55464 11.717 8.21409C11.8489 8.36518 11.9664 8.52347 12.0719 8.69135C12.0383 8.72252 12.0023 8.7513 11.9688 8.78488C11.2951 9.45879 10.9234 10.3533 10.9234 11.3055C10.9234 11.4086 10.9306 11.5093 10.9402 11.61H8.06071C8.0703 11.5093 8.07509 11.4062 8.07509 11.3007C8.07509 9.95044 7.31985 8.77289 6.20977 8.16852L6.15942 8.08938L3.65873 4.22576ZM7.11606 11.3031C7.11606 11.9962 6.84513 12.6509 6.35122 13.1449C5.85972 13.6366 5.20518 13.91 4.51227 13.91C3.07612 13.91 1.90849 12.742 1.90849 11.3079C1.90849 10.6124 2.17942 9.96003 2.67092 9.46599C3.16243 8.97434 3.81697 8.70094 4.51227 8.70094C5.94843 8.70094 7.11606 9.8689 7.11606 11.3055V11.3031Z" fill="#1B303E"/>
<path d="M0.13906 20.1647C0.227771 20.2558 0.352446 20.3086 0.479518 20.3086H8.54261C8.80155 20.3086 9.01254 20.1024 9.02213 19.8433C9.02693 19.7162 9.10365 16.7112 7.21195 14.9796C7.04172 14.8238 6.78278 14.8118 6.59577 14.9509C6.50946 15.0156 4.4811 16.5217 2.55823 14.9557C2.37841 14.807 2.11707 14.8118 1.94205 14.9652C1.86533 15.0324 0.0455542 16.6512 0 19.8218C0 19.9513 0.0479518 20.0736 0.13906 20.1647ZM2.31128 15.9629C4.00637 17.0829 5.82135 16.5529 6.82354 15.9533C7.77059 17.0302 7.99357 18.5818 8.04631 19.3493H0.983012C1.12927 17.5722 1.89889 16.4498 2.31128 15.9653V15.9629Z" fill="#1B303E"/>
<path d="M16.5721 14.9509C16.4858 15.0156 14.4574 16.5217 12.5346 14.9557C12.3547 14.807 12.0934 14.8118 11.916 14.9652C11.8393 15.0324 10.0195 16.6512 9.97393 19.8218C9.97393 19.9513 10.0219 20.0736 10.113 20.1647C10.2041 20.2558 10.3264 20.3086 10.4558 20.3086H18.5189C18.7779 20.3086 18.9889 20.1024 18.9985 19.8433C19.0033 19.7162 19.08 16.7112 17.1883 14.9796C17.018 14.8238 16.7591 14.8118 16.5745 14.9509H16.5721ZM18.0226 19.3469H10.9569C11.1032 17.5698 11.8728 16.4474 12.2876 15.9629C13.9803 17.0829 15.7977 16.5529 16.7999 15.9533C17.7469 17.0302 17.9699 18.5818 18.0226 19.3493V19.3469Z" fill="#1B303E"/>
</svg>
