<svg width="17" height="20" viewBox="0 0 17 20" fill="none" xmlns="http://www.w3.org/2000/svg">
<path d="M0.689189 16.0811C0.312432 16.0811 0 15.7686 0 15.3919V5.28378C0 1.23135 1.23135 0 5.28378 0H11.7162C15.7686 0 17 1.23135 17 5.28378V14.473C17 14.62 17 14.7578 16.9908 14.9049C16.9632 15.2816 16.6232 15.5757 16.2557 15.5481C15.8789 15.5205 15.5849 15.1897 15.6124 14.813C15.6216 14.7027 15.6216 14.5832 15.6216 14.473V5.28378C15.6216 2.00324 15.0059 1.37838 11.7162 1.37838H5.28378C1.99405 1.37838 1.37838 2.00324 1.37838 5.28378V15.3919C1.37838 15.7686 1.06595 16.0811 0.689189 16.0811Z" fill="#1B303E"/>
<path d="M1.5 2L1 4V17L2 19H14L16 18V2L15 1H2.5L1.5 2Z" fill="white"/>
<path d="M13.0946 19.7567H3.90541C1.75514 19.7567 0 18.0016 0 15.8513V15.254C0 13.4254 1.48865 11.9459 3.30811 11.9459H16.3108C16.6876 11.9459 17 12.2584 17 12.6351V15.8513C17 18.0016 15.2449 19.7567 13.0946 19.7567ZM3.30811 13.3243C2.24216 13.3243 1.37838 14.1881 1.37838 15.254V15.8513C1.37838 17.2481 2.50865 18.3784 3.90541 18.3784H13.0946C14.4914 18.3784 15.6216 17.2481 15.6216 15.8513V13.3243H3.30811Z" fill="white"/>
<path d="M0.689189 16.0811C0.312432 16.0811 0 15.7686 0 15.3919V5.28378C0 1.23135 1.23135 0 5.28378 0H11.7162C15.7686 0 17 1.23135 17 5.28378V14.473C17 14.62 17 14.7578 16.9908 14.9049C16.9632 15.2816 16.6232 15.5757 16.2557 15.5481C15.8789 15.5205 15.5849 15.1897 15.6124 14.813C15.6216 14.7027 15.6216 14.5832 15.6216 14.473V5.28378C15.6216 2.00324 15.0059 1.37838 11.7162 1.37838H5.28378C1.99405 1.37838 1.37838 2.00324 1.37838 5.28378V15.3919C1.37838 15.7686 1.06595 16.0811 0.689189 16.0811Z" fill="#1B303E"/>
<path d="M13.0946 19.7567H3.90541C1.75514 19.7567 0 18.0016 0 15.8513V15.254C0 13.4254 1.48865 11.9459 3.30811 11.9459H16.3108C16.6876 11.9459 17 12.2583 17 12.6351V15.8513C17 18.0016 15.2449 19.7567 13.0946 19.7567ZM3.30811 13.3243C2.24216 13.3243 1.37838 14.1881 1.37838 15.254V15.8513C1.37838 17.2481 2.50865 18.3783 3.90541 18.3783H13.0946C14.4914 18.3783 15.6216 17.2481 15.6216 15.8513V13.3243H3.30811Z" fill="#1B303E"/>
<path d="M12.1756 5.97286H4.82429C4.44753 5.97286 4.1351 5.66043 4.1351 5.28367C4.1351 4.90691 4.44753 4.59448 4.82429 4.59448H12.1756C12.5524 4.59448 12.8648 4.90691 12.8648 5.28367C12.8648 5.66043 12.5524 5.97286 12.1756 5.97286Z" fill="#1B303E"/>
<path d="M9.41888 9.18919H4.82429C4.44753 9.18919 4.1351 8.87676 4.1351 8.50001C4.1351 8.12325 4.44753 7.81082 4.82429 7.81082H9.41888C9.79564 7.81082 10.1081 8.12325 10.1081 8.50001C10.1081 8.87676 9.79564 9.18919 9.41888 9.18919Z" fill="#1B303E"/>
</svg>
