<svg width="20" height="20" viewBox="0 0 20 20" fill="none" xmlns="http://www.w3.org/2000/svg">
<path d="M8.94388 19.2642H7.06746C2.37641 19.2642 0.499997 17.3877 0.499997 12.6967L0.499997 7.06745C0.499997 2.3764 2.37641 0.499986 7.06746 0.499986H12.6967C17.3878 0.499986 19.2642 2.3764 19.2642 7.06745V8.94387" fill="white"/>
<path d="M8.94388 19.2642H7.06746C2.37641 19.2642 0.499997 17.3877 0.499997 12.6967L0.499997 7.06745C0.499997 2.3764 2.37641 0.499986 7.06746 0.499986H12.6967C17.3878 0.499986 19.2642 2.3764 19.2642 7.06745V8.94387" stroke="#292D32" stroke-linecap="round" stroke-linejoin="round"/>
<path d="M13.6723 18.3072L6.27924 10.9141C5.99778 10.6327 5.71632 10.0791 5.66003 9.67569L5.2566 6.85168C5.10648 5.82903 5.8289 5.11599 6.85155 5.25672L9.67556 5.66016C10.0696 5.71645 10.6232 5.99791 10.914 6.27937L18.3071 13.6725C19.583 14.9484 20.1835 16.4308 18.3071 18.3072C16.4307 20.1836 14.9483 19.5832 13.6723 18.3072Z" fill="white" stroke="#292D32" stroke-miterlimit="10" stroke-linecap="round" stroke-linejoin="round"/>
<path d="M12.6122 17.2471C13.2408 15.0048 14.9953 13.2503 17.247 12.6123L12.6122 17.2471Z" fill="white"/>
<path d="M12.6122 17.2471C13.2408 15.0048 14.9953 13.2503 17.247 12.6123" stroke="#292D32" stroke-miterlimit="10" stroke-linecap="round" stroke-linejoin="round"/>
</svg>
