<svg width="18" height="21" viewBox="0 0 18 21" fill="none" xmlns="http://www.w3.org/2000/svg">
<path d="M0.539185 6.58789C0.634238 5.47879 0.981827 4.60166 1.57141 3.97559C2.16032 3.3504 3.03945 2.92404 4.29602 2.80762L4.75012 2.76562V0.75C4.75012 0.616219 4.86636 0.500132 5.00012 0.5C5.13398 0.5 5.25012 0.616142 5.25012 0.75V2.75L12.7501 2.75V0.75C12.7501 0.616209 12.8663 0.500115 13.0001 0.5C13.134 0.5 13.2501 0.616142 13.2501 0.75V2.76562L13.7042 2.80762C14.961 2.92399 15.8399 3.35034 16.4288 3.97559C17.0189 4.60204 17.3662 5.47972 17.4611 6.58984L0.542114 6.58984C0.541315 6.58945 0.540233 6.58883 0.539185 6.58789Z" fill="white" stroke="#1B303E"/>
<path d="M1 8.54016H17C17.3015 8.54016 17.5498 8.78852 17.5498 9.08997V15.2501C17.5498 16.681 17.1918 17.8045 16.4824 18.5685C15.7786 19.3264 14.6642 19.7999 13 19.7999H5C3.33579 19.7999 2.22141 19.3264 1.51758 18.5685C0.808173 17.8045 0.450228 16.681 0.450195 15.2501L0.450195 9.08997C0.450195 8.78852 0.698505 8.54016 1 8.54016ZM5.78809 14.3282C5.53766 14.2782 5.28019 14.2932 5.03906 14.3781L4.95801 14.4103C4.76273 14.4855 4.61672 14.5905 4.48926 14.7052L4.47559 14.7179L4.46289 14.7306C4.20925 14.9985 4.0498 15.3675 4.0498 15.7501C4.04986 16.1327 4.20918 16.5018 4.46289 16.7697L4.47559 16.7823L4.48926 16.7941C4.61675 16.9088 4.76268 17.0137 4.95801 17.089C5.12141 17.1557 5.30601 17.2003 5.5 17.2003C5.60954 17.2003 5.70683 17.183 5.76367 17.1749V17.1759L5.77441 17.174C5.86137 17.1594 5.94343 17.1311 6.02246 17.0968C6.11851 17.0648 6.20726 17.018 6.29102 16.964L6.29199 16.9659C6.29532 16.9639 6.29752 16.9602 6.30078 16.9581C6.30342 16.9564 6.30695 16.956 6.30957 16.9542L6.30859 16.9532C6.35894 16.9211 6.40158 16.8877 6.42676 16.8663C6.46563 16.8333 6.47248 16.8266 6.49121 16.8116L6.51562 16.7921L6.53711 16.7697C6.79082 16.5018 6.95014 16.1327 6.9502 15.7501C6.9502 15.3675 6.79075 14.9985 6.53711 14.7306L6.51562 14.7081L6.49121 14.6886L6.41602 14.6281C6.39112 14.6081 6.36572 14.5884 6.34082 14.5685L6.32617 14.5568L6.30957 14.545C6.23251 14.4937 6.14922 14.4521 6.06152 14.4191C5.97501 14.3777 5.88357 14.3466 5.78711 14.3292L5.78809 14.3282ZM9 14.3126C8.63775 14.3126 8.25398 14.4395 7.97168 14.7218L7.96289 14.7306C7.70925 14.9985 7.5498 15.3675 7.5498 15.7501C7.54986 16.1327 7.70918 16.5018 7.96289 16.7697L7.97168 16.7784L7.98047 16.7863C8.24838 17.0401 8.61727 17.2003 9 17.2003C9.38273 17.2003 9.75162 17.0401 10.0195 16.7863L10.0283 16.7784L10.0371 16.7697C10.2908 16.5018 10.4501 16.1327 10.4502 15.7501C10.4502 15.3675 10.2908 14.9985 10.0371 14.7306L10.0283 14.7218L9.91797 14.6232C9.65044 14.4097 9.31702 14.3126 9 14.3126ZM12.5 14.3126C12.1377 14.3126 11.754 14.4395 11.4717 14.7218L11.4629 14.7306C11.2092 14.9985 11.0498 15.3675 11.0498 15.7501C11.0499 16.1327 11.2092 16.5018 11.4629 16.7697L11.4717 16.7784L11.4805 16.7863C11.7484 17.0401 12.1173 17.2003 12.5 17.2003C12.8827 17.2003 13.2516 17.0401 13.5195 16.7863L13.5283 16.7784L13.5371 16.7697C13.7908 16.5018 13.9501 16.1327 13.9502 15.7501C13.9502 15.3675 13.7908 14.9985 13.5371 14.7306L13.5283 14.7218L13.418 14.6232C13.1504 14.4097 12.817 14.3126 12.5 14.3126ZM6.04102 10.9103C5.50215 10.6858 4.87527 10.8182 4.47168 11.2218L4.46289 11.2306C4.20925 11.4985 4.0498 11.8675 4.0498 12.2501C4.04986 12.6327 4.20918 13.0018 4.46289 13.2697L4.47168 13.2784L4.48047 13.2863C4.74837 13.5401 5.11727 13.7003 5.5 13.7003C5.88273 13.7003 6.25163 13.5401 6.51953 13.2863L6.52832 13.2784L6.53711 13.2697C6.79082 13.0018 6.95014 12.6327 6.9502 12.2501C6.9502 11.8675 6.79075 11.4985 6.53711 11.2306L6.52832 11.2218L6.41992 11.1241C6.31098 11.037 6.18878 10.9693 6.05762 10.9171H6.05859C6.0554 10.9157 6.05203 10.9146 6.04883 10.9132C6.04652 10.9123 6.04431 10.9112 6.04199 10.9103H6.04102ZM9.94922 11.1486C9.56837 10.8221 9.02801 10.7114 8.54395 10.8771L8.45801 10.9103C8.27504 10.9807 8.11012 11.0834 7.97168 11.2218L7.96289 11.2306C7.70925 11.4985 7.5498 11.8675 7.5498 12.2501C7.54986 12.6327 7.70918 13.0018 7.96289 13.2697L7.97168 13.2784L7.98047 13.2863C8.24837 13.5401 8.61727 13.7003 9 13.7003C9.10954 13.7003 9.20682 13.683 9.26367 13.6749V13.6759L9.27441 13.674C9.36137 13.6594 9.44343 13.6311 9.52246 13.5968C9.62522 13.5625 9.7209 13.5133 9.80957 13.4542L9.82617 13.4435L9.84082 13.4318C9.86582 13.4118 9.89102 13.3912 9.91602 13.3712C9.94098 13.3512 9.96625 13.3316 9.99121 13.3116L10.0156 13.2921L10.0371 13.2697C10.2908 13.0018 10.4501 12.6327 10.4502 12.2501C10.4502 11.8675 10.2908 11.4985 10.0371 11.2306L10.0283 11.2218L9.94922 11.1486ZM12.7881 10.8282C12.5377 10.7782 12.2802 10.7932 12.0391 10.8781L11.958 10.9103C11.7627 10.9855 11.6167 11.0905 11.4893 11.2052L11.4756 11.2179L11.4629 11.2306C11.2092 11.4985 11.0498 11.8675 11.0498 12.2501C11.0499 12.6327 11.2092 13.0018 11.4629 13.2697L11.4717 13.2784L11.4805 13.2863C11.7484 13.5401 12.1173 13.7003 12.5 13.7003C12.5985 13.7003 12.7028 13.6836 12.7637 13.6749V13.6759L12.7744 13.674C12.8614 13.6594 12.9434 13.6311 13.0225 13.5968C13.1252 13.5625 13.2209 13.5133 13.3096 13.4542L13.3262 13.4435L13.3408 13.4318C13.3658 13.4118 13.391 13.3912 13.416 13.3712C13.441 13.3512 13.4662 13.3316 13.4912 13.3116L13.5156 13.2921L13.5371 13.2697C13.7908 13.0018 13.9501 12.6327 13.9502 12.2501C13.9502 11.8675 13.7908 11.4985 13.5371 11.2306L13.5156 11.2081L13.4912 11.1886L13.3408 11.0685L13.3262 11.0568L13.3096 11.045C13.2259 10.9893 13.1353 10.9441 13.0391 10.9103C12.959 10.874 12.8755 10.8452 12.7871 10.8292L12.7881 10.8282Z" fill="white" stroke="#1B303E" stroke-width="0.9"/>
</svg>
