<svg width="18" height="19" viewBox="0 0 18 19" fill="none" xmlns="http://www.w3.org/2000/svg">
<path d="M0.511231 13.4624V4.60108C0.511231 1.73819 1.87451 0.908855 2.55615 0.852052H13.1216C15.3028 0.852052 16.6434 2.55615 17.041 3.40821V14.1441C17.041 16.189 14.4281 17.2682 13.1216 17.5523H5.45313C2.45391 17.5523 0.908855 14.8257 0.511231 13.4624Z" fill="white"/>
<path d="M4.88095 12.441C4.57955 12.441 4.27816 12.3656 4.00189 12.2066C3.44096 11.8884 3.10606 11.319 3.10606 10.6828V7.69393C3.10606 7.47625 2.96374 7.10793 2.78792 6.89863L0.678139 4.68C0.284651 4.29488 0 3.62512 0 3.11443V1.81676C0 0.803738 0.770216 0 1.75812 0H9.2093C10.1805 0 10.9674 0.786985 10.9674 1.75815V2.99723C10.9674 3.65025 10.5907 4.37024 10.2223 4.73861L7.7693 6.90698C7.57674 7.06605 7.41767 7.45122 7.41767 7.73587V10.1637C7.41767 10.7414 7.06605 11.3861 6.60559 11.6624L5.83532 12.1646C5.53393 12.3488 5.20746 12.441 4.88095 12.441ZM1.75812 1.26419C1.47347 1.26419 1.25581 1.507 1.25581 1.82514V3.12281C1.25581 3.26513 1.39815 3.62513 1.58233 3.80932L3.7423 6.07815C4.06044 6.47164 4.37021 7.11629 4.37021 7.69393V10.6828C4.37021 10.9339 4.52933 11.0596 4.62979 11.1098C4.76375 11.1852 4.98138 11.227 5.16556 11.1098L5.94417 10.6074C6.04463 10.5488 6.16185 10.3145 6.16185 10.1722V7.74416C6.16185 7.08279 6.48836 6.35442 6.94883 5.96093L9.36 3.82605C9.5107 3.67536 9.71163 3.26513 9.71163 2.99723V1.75815C9.71163 1.48187 9.48558 1.25581 9.2093 1.25581H1.75812V1.26419Z" fill="#292D32"/>
<path d="M11.5116 18.0082H6.48837C1.94233 18.0082 0 16.0658 0 11.5198V9.00817C0 8.66491 0.284651 8.38026 0.627907 8.38026C0.971163 8.38026 1.25581 8.66491 1.25581 9.00817V11.5198C1.25581 15.3793 2.62884 16.7524 6.48837 16.7524H11.5116C15.3712 16.7524 16.7442 15.3793 16.7442 11.5198V6.49653C16.7442 4.06862 16.1749 2.66211 14.894 1.93373C14.76 1.85838 14.3163 1.65747 13.0437 1.45654C12.7005 1.40631 12.466 1.07978 12.5247 0.736524C12.5833 0.393268 12.9098 0.158858 13.2447 0.217462C14.3414 0.393276 15.0865 0.594198 15.5135 0.836989C17.2047 1.79978 18 3.59979 18 6.49653V11.5198C18 16.0658 16.0577 18.0082 11.5116 18.0082Z" fill="#292D32"/>
<path d="M14.0233 10.4733H9.83721C9.49395 10.4733 9.2093 10.1886 9.2093 9.84538C9.2093 9.50212 9.49395 9.21747 9.83721 9.21747H14.0233C14.3665 9.21747 14.6512 9.50212 14.6512 9.84538C14.6512 10.1886 14.3665 10.4733 14.0233 10.4733Z" fill="#292D32"/>
<path d="M14.0233 13.8221H8.16279C7.81953 13.8221 7.53488 13.5375 7.53488 13.1942C7.53488 12.851 7.81953 12.5663 8.16279 12.5663H14.0233C14.3665 12.5663 14.6512 12.851 14.6512 13.1942C14.6512 13.5375 14.3665 13.8221 14.0233 13.8221Z" fill="#292D32"/>
</svg>
