<svg width="242" height="93" viewBox="0 0 242 93" fill="none" xmlns="http://www.w3.org/2000/svg">
<circle cx="36.5" cy="74.4792" r="18.5" fill="#1B303E"/>
<path d="M38.8125 63.9792H36.0339C32.6141 63.9792 30.4767 66.0785 30.4767 69.4373V73.6884H37.156C37.5942 73.6884 37.9575 74.0452 37.9575 74.4756C37.9575 74.906 37.5942 75.2628 37.156 75.2628H30.4767V79.5139C30.4767 82.8727 32.6141 84.972 36.0339 84.972H38.8018C42.2216 84.972 44.3589 82.8727 44.3589 79.5139V69.4373C44.3696 66.0785 42.2322 63.9792 38.8125 63.9792Z" fill="white"/>
<path d="M25.7332 73.6882L27.9454 71.5154C28.1057 71.358 28.1805 71.1586 28.1805 70.9591C28.1805 70.7597 28.1057 70.5498 27.9454 70.4028C27.6355 70.0984 27.1225 70.0984 26.8126 70.4028L23.2325 73.9191C22.9226 74.2235 22.9226 74.7273 23.2325 75.0317L26.8126 78.548C27.1225 78.8524 27.6355 78.8524 27.9454 78.548C28.2553 78.2436 28.2553 77.7398 27.9454 77.4354L25.7332 75.2626H30.4782V73.6882H25.7332Z" fill="white"/>
<path d="M67.3385 80.9999V66.7199H69.8985V78.8399H75.8585V80.9999H67.3385ZM87.7746 75.5599C87.7746 76.4665 87.6546 77.2665 87.4146 77.9599C87.1746 78.6532 86.8279 79.2465 86.3746 79.7399C85.9346 80.2199 85.3879 80.5865 84.7346 80.8399C84.0946 81.0799 83.3813 81.1999 82.5946 81.1999C81.8479 81.1999 81.1613 81.0799 80.5346 80.8399C79.9079 80.5865 79.3613 80.2199 78.8946 79.7399C78.4413 79.2465 78.0879 78.6532 77.8346 77.9599C77.5813 77.2665 77.4546 76.4665 77.4546 75.5599C77.4546 74.3599 77.6613 73.3465 78.0746 72.5199C78.4879 71.6799 79.0813 71.0465 79.8546 70.6199C80.6413 70.1799 81.5679 69.9599 82.6346 69.9599C83.6479 69.9599 84.5346 70.1799 85.2946 70.6199C86.0679 71.0465 86.6746 71.6799 87.1146 72.5199C87.5546 73.3465 87.7746 74.3599 87.7746 75.5599ZM80.0346 75.5599C80.0346 76.3199 80.1213 76.9732 80.2946 77.5199C80.4813 78.0532 80.7613 78.4599 81.1346 78.7399C81.5213 79.0199 82.0146 79.1599 82.6146 79.1599C83.2279 79.1599 83.7213 79.0199 84.0946 78.7399C84.4813 78.4599 84.7613 78.0532 84.9346 77.5199C85.1079 76.9732 85.1946 76.3199 85.1946 75.5599C85.1946 74.7865 85.1013 74.1399 84.9146 73.6199C84.7413 73.0865 84.4613 72.6865 84.0746 72.4199C83.7013 72.1399 83.2146 71.9999 82.6146 71.9999C81.7079 71.9999 81.0479 72.3065 80.6346 72.9199C80.2346 73.5332 80.0346 74.4132 80.0346 75.5599ZM94.0198 69.9599C94.6998 69.9599 95.3131 70.0932 95.8598 70.3599C96.4064 70.6265 96.8664 71.0265 97.2398 71.5599H97.3398L97.5798 70.1599H99.6798V81.0799C99.6798 82.1065 99.4864 82.9665 99.0998 83.6599C98.7131 84.3665 98.1331 84.8999 97.3598 85.2599C96.5864 85.6199 95.6198 85.7999 94.4598 85.7999C93.6864 85.7999 92.9731 85.7465 92.3198 85.6399C91.6664 85.5465 91.0464 85.3799 90.4598 85.1399V83.0599C90.8731 83.2332 91.2998 83.3799 91.7398 83.4999C92.1931 83.6332 92.6598 83.7332 93.1398 83.7999C93.6198 83.8665 94.1131 83.8999 94.6198 83.8999C95.4464 83.8999 96.0731 83.6665 96.4998 83.1999C96.9398 82.7332 97.1598 82.0665 97.1598 81.1999V80.9199C97.1598 80.7199 97.1664 80.4865 97.1798 80.2199C97.2064 79.9532 97.2264 79.7399 97.2398 79.5799H97.1598C96.7864 80.1399 96.3331 80.5532 95.7998 80.8199C95.2664 81.0732 94.6531 81.1999 93.9598 81.1999C92.6398 81.1999 91.6064 80.7065 90.8598 79.7199C90.1131 78.7332 89.7398 77.3599 89.7398 75.5999C89.7398 74.4132 89.9064 73.3999 90.2398 72.5599C90.5864 71.7199 91.0798 71.0799 91.7198 70.6399C92.3598 70.1865 93.1264 69.9599 94.0198 69.9599ZM94.6798 72.0199C94.1731 72.0199 93.7398 72.1599 93.3798 72.4399C93.0331 72.7065 92.7664 73.1065 92.5798 73.6399C92.4064 74.1732 92.3198 74.8399 92.3198 75.6399C92.3198 76.8132 92.5198 77.6999 92.9198 78.2999C93.3198 78.8999 93.9198 79.1999 94.7198 79.1999C95.1731 79.1999 95.5598 79.1465 95.8798 79.0399C96.1998 78.9199 96.4598 78.7332 96.6598 78.4799C96.8731 78.2132 97.0331 77.8799 97.1398 77.4799C97.2464 77.0665 97.2998 76.5732 97.2998 75.9999V75.6199C97.2998 74.7532 97.2064 74.0599 97.0198 73.5399C96.8331 73.0065 96.5464 72.6199 96.1598 72.3799C95.7864 72.1399 95.2931 72.0199 94.6798 72.0199ZM112.579 75.5599C112.579 76.4665 112.459 77.2665 112.219 77.9599C111.979 78.6532 111.633 79.2465 111.179 79.7399C110.739 80.2199 110.193 80.5865 109.539 80.8399C108.899 81.0799 108.186 81.1999 107.399 81.1999C106.653 81.1999 105.966 81.0799 105.339 80.8399C104.713 80.5865 104.166 80.2199 103.699 79.7399C103.246 79.2465 102.893 78.6532 102.639 77.9599C102.386 77.2665 102.259 76.4665 102.259 75.5599C102.259 74.3599 102.466 73.3465 102.879 72.5199C103.293 71.6799 103.886 71.0465 104.659 70.6199C105.446 70.1799 106.373 69.9599 107.439 69.9599C108.453 69.9599 109.339 70.1799 110.099 70.6199C110.873 71.0465 111.479 71.6799 111.919 72.5199C112.359 73.3465 112.579 74.3599 112.579 75.5599ZM104.839 75.5599C104.839 76.3199 104.926 76.9732 105.099 77.5199C105.286 78.0532 105.566 78.4599 105.939 78.7399C106.326 79.0199 106.819 79.1599 107.419 79.1599C108.033 79.1599 108.526 79.0199 108.899 78.7399C109.286 78.4599 109.566 78.0532 109.739 77.5199C109.913 76.9732 109.999 76.3199 109.999 75.5599C109.999 74.7865 109.906 74.1399 109.719 73.6199C109.546 73.0865 109.266 72.6865 108.879 72.4199C108.506 72.1399 108.019 71.9999 107.419 71.9999C106.513 71.9999 105.853 72.3065 105.439 72.9199C105.039 73.5332 104.839 74.4132 104.839 75.5599ZM124.804 70.1599V80.9999H122.824L122.484 79.5999H122.364C122.138 79.9732 121.844 80.2799 121.484 80.5199C121.124 80.7465 120.731 80.9132 120.304 81.0199C119.878 81.1399 119.438 81.1999 118.984 81.1999C118.184 81.1999 117.491 81.0599 116.904 80.7799C116.318 80.4999 115.871 80.0732 115.564 79.4999C115.258 78.9132 115.104 78.1599 115.104 77.2399V70.1599H117.624V76.7399C117.624 77.5399 117.784 78.1465 118.104 78.5599C118.424 78.9599 118.931 79.1599 119.624 79.1599C120.304 79.1599 120.838 79.0199 121.224 78.7399C121.611 78.4465 121.884 78.0265 122.044 77.4799C122.204 76.9332 122.284 76.2599 122.284 75.4599V70.1599H124.804ZM132.216 79.1799C132.536 79.1799 132.843 79.1532 133.136 79.0999C133.43 79.0332 133.703 78.9599 133.956 78.8799V80.7599C133.69 80.8799 133.343 80.9799 132.916 81.0599C132.49 81.1532 132.043 81.1999 131.576 81.1999C130.963 81.1999 130.403 81.0999 129.896 80.8999C129.403 80.6865 129.003 80.3265 128.696 79.8199C128.403 79.3132 128.256 78.6065 128.256 77.6999V72.0599H126.796V70.9599L128.396 70.0799L129.196 67.7799H130.776V70.1599H133.856V72.0599H130.776V77.6799C130.776 78.1865 130.91 78.5665 131.176 78.8199C131.443 79.0599 131.79 79.1799 132.216 79.1799Z" fill="#1B303E"/>
<path d="M0 34.9792H242" stroke="#D2D2D2" stroke-width="1.00069"/>
<path d="M38.9012 2.49762C39.8465 2.49762 40.7024 3.02262 41.1751 3.79762C41.405 4.17262 41.5583 4.63512 41.52 5.12262C41.4944 5.49762 41.6094 5.87262 41.8138 6.22262C42.4653 7.28512 43.9088 7.68512 45.0329 7.08512C46.2976 6.36012 47.8944 6.79762 48.6226 8.03512L49.4785 9.51012C50.2194 10.7476 49.8106 12.3351 48.5332 13.0476C47.4473 13.6851 47.0641 15.0976 47.7156 16.1726C47.92 16.5101 48.1499 16.7976 48.5076 16.9726C48.9547 17.2101 49.2996 17.5851 49.5423 17.9601C50.015 18.7351 49.9767 19.6851 49.5168 20.5226L48.6226 22.0226C48.1499 22.8226 47.2685 23.3226 46.3615 23.3226C45.9144 23.3226 45.4162 23.1976 45.0074 22.9476C44.6753 22.7351 44.292 22.6601 43.8832 22.6601C42.6186 22.6601 41.5583 23.6976 41.52 24.9351C41.52 26.3726 40.3447 27.4976 38.8757 27.4976H37.1383C35.6565 27.4976 34.4812 26.3726 34.4812 24.9351C34.4557 23.6976 33.3954 22.6601 32.1307 22.6601C31.7092 22.6601 31.3259 22.7351 31.0066 22.9476C30.5978 23.1976 30.0868 23.3226 29.6525 23.3226C28.7327 23.3226 27.8513 22.8226 27.3786 22.0226L26.4972 20.5226C26.0245 19.7101 25.999 18.7351 26.4716 17.9601C26.676 17.5851 27.0593 17.2101 27.4936 16.9726C27.8513 16.7976 28.0812 16.5101 28.2984 16.1726C28.9371 15.0976 28.5539 13.6851 27.4681 13.0476C26.2034 12.3351 25.7946 10.7476 26.5227 9.51012L27.3786 8.03512C28.1196 6.79762 29.7036 6.36012 30.981 7.08512C32.0924 7.68512 33.5359 7.28512 34.1874 6.22262C34.3918 5.87262 34.5068 5.49762 34.4812 5.12262C34.4557 4.63512 34.5962 4.17262 34.8389 3.79762C35.3116 3.02262 36.1675 2.52262 37.1 2.49762L38.9012 2.49762ZM38.0198 11.4726C36.0142 11.4726 34.3918 13.0476 34.3918 15.0101C34.3918 16.9726 36.0142 18.5351 38.0198 18.5351C40.0254 18.5351 41.6094 16.9726 41.6094 15.0101C41.6094 13.0476 40.0254 11.4726 38.0198 11.4726Z" fill="#1B303E"/>
<path d="M73.167 18.6C73.167 19.44 72.9603 20.1667 72.547 20.78C72.1336 21.3933 71.5336 21.8667 70.747 22.2C69.9736 22.5333 69.047 22.7 67.967 22.7C67.447 22.7 66.947 22.6667 66.467 22.6C66.0003 22.5467 65.5536 22.46 65.127 22.34C64.7136 22.22 64.327 22.0733 63.967 21.9V19.5C64.567 19.7667 65.227 20.0133 65.947 20.24C66.667 20.4533 67.4003 20.56 68.147 20.56C68.7203 20.56 69.187 20.4867 69.547 20.34C69.9203 20.18 70.1936 19.9667 70.367 19.7C70.5403 19.42 70.627 19.1 70.627 18.74C70.627 18.34 70.5136 18 70.287 17.72C70.0603 17.44 69.727 17.18 69.287 16.94C68.847 16.7 68.3003 16.4467 67.647 16.18C67.207 15.9933 66.7736 15.7867 66.347 15.56C65.9336 15.32 65.5603 15.0333 65.227 14.7C64.8936 14.3667 64.627 13.9733 64.427 13.52C64.227 13.0667 64.127 12.5333 64.127 11.92C64.127 11.1067 64.3203 10.4067 64.707 9.82C65.107 9.23333 65.6603 8.78667 66.367 8.48C67.087 8.17333 67.9203 8.02 68.867 8.02C69.627 8.02 70.3403 8.1 71.007 8.26C71.6736 8.42 72.3336 8.64667 72.987 8.94L72.167 11C71.5803 10.7467 71.0136 10.5467 70.467 10.4C69.9203 10.2533 69.3603 10.18 68.787 10.18C68.3336 10.18 67.947 10.2533 67.627 10.4C67.307 10.5333 67.067 10.7267 66.907 10.98C66.747 11.2333 66.667 11.5267 66.667 11.86C66.667 12.2467 66.767 12.5733 66.967 12.84C67.167 13.1067 67.4736 13.36 67.887 13.6C68.3136 13.8267 68.8603 14.0867 69.527 14.38C70.3003 14.7133 70.9536 15.06 71.487 15.42C72.0203 15.78 72.4336 16.2133 72.727 16.72C73.0203 17.2267 73.167 17.8533 73.167 18.6ZM79.9831 11.46C80.9564 11.46 81.7897 11.66 82.4831 12.06C83.1897 12.4467 83.7364 13.0067 84.1231 13.74C84.5097 14.46 84.7031 15.34 84.7031 16.38V17.66H77.5431C77.5697 18.6467 77.8431 19.4133 78.3631 19.96C78.8831 20.4933 79.6031 20.76 80.5231 20.76C81.2297 20.76 81.8564 20.6933 82.4031 20.56C82.9631 20.4133 83.5364 20.2067 84.1231 19.94V21.96C83.5897 22.2133 83.0364 22.4 82.4631 22.52C81.8897 22.64 81.2031 22.7 80.4031 22.7C79.3497 22.7 78.4097 22.5 77.5831 22.1C76.7697 21.6867 76.1297 21.0667 75.6631 20.24C75.2097 19.4133 74.9831 18.3867 74.9831 17.16C74.9831 15.92 75.1897 14.88 75.6031 14.04C76.0297 13.1867 76.6164 12.5467 77.3631 12.12C78.1097 11.68 78.9831 11.46 79.9831 11.46ZM79.9831 13.32C79.3164 13.32 78.7697 13.54 78.3431 13.98C77.9297 14.4067 77.6831 15.0467 77.6031 15.9L82.2631 15.9C82.2631 15.3933 82.1764 14.9467 82.0031 14.56C81.8431 14.1733 81.5964 13.8733 81.2631 13.66C80.9297 13.4333 80.5031 13.32 79.9831 13.32ZM91.4441 20.68C91.7641 20.68 92.0708 20.6533 92.3641 20.6C92.6575 20.5333 92.9308 20.46 93.1841 20.38V22.26C92.9175 22.38 92.5708 22.48 92.1441 22.56C91.7175 22.6533 91.2708 22.7 90.8041 22.7C90.1908 22.7 89.6308 22.6 89.1241 22.4C88.6308 22.1867 88.2308 21.8267 87.9241 21.32C87.6308 20.8133 87.4841 20.1067 87.4841 19.2V13.56H86.0241V12.46L87.6241 11.58L88.4241 9.28H90.0041V11.66H93.0841V13.56H90.0041V19.18C90.0041 19.6867 90.1375 20.0667 90.4041 20.32C90.6708 20.56 91.0175 20.68 91.4441 20.68ZM99.5691 20.68C99.8891 20.68 100.196 20.6533 100.489 20.6C100.782 20.5333 101.056 20.46 101.309 20.38V22.26C101.042 22.38 100.696 22.48 100.269 22.56C99.8425 22.6533 99.3958 22.7 98.9291 22.7C98.3158 22.7 97.7558 22.6 97.2491 22.4C96.7558 22.1867 96.3558 21.8267 96.0491 21.32C95.7558 20.8133 95.6091 20.1067 95.6091 19.2V13.56H94.1491V12.46L95.7491 11.58L96.5491 9.28L98.1291 9.28V11.66L101.209 11.66V13.56L98.1291 13.56V19.18C98.1291 19.6867 98.2625 20.0667 98.5291 20.32C98.7958 20.56 99.1425 20.68 99.5691 20.68ZM106.014 11.66V22.5H103.494V11.66H106.014ZM104.754 7.48C105.127 7.48 105.454 7.58 105.734 7.78C106.014 7.96667 106.154 8.30667 106.154 8.8C106.154 9.28 106.014 9.62667 105.734 9.84C105.454 10.04 105.127 10.14 104.754 10.14C104.367 10.14 104.034 10.04 103.754 9.84C103.487 9.62667 103.354 9.28 103.354 8.8C103.354 8.30667 103.487 7.96667 103.754 7.78C104.034 7.58 104.367 7.48 104.754 7.48ZM115.036 11.46C116.25 11.46 117.196 11.7733 117.876 12.4C118.57 13.0267 118.916 14.04 118.916 15.44V22.5H116.396V15.94C116.396 15.1267 116.236 14.52 115.916 14.12C115.596 13.7067 115.09 13.5 114.396 13.5C113.383 13.5 112.69 13.82 112.316 14.46C111.943 15.0867 111.756 16 111.756 17.2V22.5H109.236V11.66L111.176 11.66L111.536 13.08H111.676C111.916 12.7067 112.21 12.4 112.556 12.16C112.903 11.92 113.29 11.7467 113.716 11.64C114.143 11.52 114.583 11.46 115.036 11.46ZM125.708 11.46C126.388 11.46 127.002 11.5933 127.548 11.86C128.095 12.1267 128.555 12.5267 128.928 13.06H129.028L129.268 11.66H131.368V22.58C131.368 23.6067 131.175 24.4667 130.788 25.16C130.402 25.8667 129.822 26.4 129.048 26.76C128.275 27.12 127.308 27.3 126.148 27.3C125.375 27.3 124.662 27.2467 124.008 27.14C123.355 27.0467 122.735 26.88 122.148 26.64V24.56C122.562 24.7333 122.988 24.88 123.428 25C123.882 25.1333 124.348 25.2333 124.828 25.3C125.308 25.3667 125.802 25.4 126.308 25.4C127.135 25.4 127.762 25.1667 128.188 24.7C128.628 24.2333 128.848 23.5667 128.848 22.7V22.42C128.848 22.22 128.855 21.9867 128.868 21.72C128.895 21.4533 128.915 21.24 128.928 21.08H128.848C128.475 21.64 128.022 22.0533 127.488 22.32C126.955 22.5733 126.342 22.7 125.648 22.7C124.328 22.7 123.295 22.2067 122.548 21.22C121.802 20.2333 121.428 18.86 121.428 17.1C121.428 15.9133 121.595 14.9 121.928 14.06C122.275 13.22 122.768 12.58 123.408 12.14C124.048 11.6867 124.815 11.46 125.708 11.46ZM126.368 13.52C125.862 13.52 125.428 13.66 125.068 13.94C124.722 14.2067 124.455 14.6067 124.268 15.14C124.095 15.6733 124.008 16.34 124.008 17.14C124.008 18.3133 124.208 19.2 124.608 19.8C125.008 20.4 125.608 20.7 126.408 20.7C126.862 20.7 127.248 20.6467 127.568 20.54C127.888 20.42 128.148 20.2333 128.348 19.98C128.562 19.7133 128.722 19.38 128.828 18.98C128.935 18.5667 128.988 18.0733 128.988 17.5V17.12C128.988 16.2533 128.895 15.56 128.708 15.04C128.522 14.5067 128.235 14.12 127.848 13.88C127.475 13.64 126.982 13.52 126.368 13.52Z" fill="#1B303E"/>
</svg>
