<svg width="44" height="13" viewBox="0 0 44 13" fill="none" xmlns="http://www.w3.org/2000/svg">
<path d="M1.50777 8.16036H4.73489V9.33746H1.43111e-05L1.43111e-05 -2.2255e-05H1.50777L1.50777 8.16036ZM9.24843 1.95741C9.95381 1.95741 10.5887 2.1073 11.153 2.40709C11.7173 2.70688 12.1581 3.13892 12.4756 3.70323C12.793 4.26753 12.9517 4.92883 12.9517 5.68711C12.9517 6.45422 12.793 7.11992 12.4756 7.68423C12.1581 8.24853 11.7173 8.68058 11.153 8.98036C10.5887 9.28015 9.95381 9.43004 9.24843 9.43004C8.54305 9.43004 7.90821 9.28015 7.3439 8.98036C6.78841 8.68058 6.34755 8.24853 6.02131 7.68423C5.70389 7.1111 5.54518 6.4454 5.54518 5.68711C5.54518 4.92883 5.70389 4.26753 6.02131 3.70323C6.34755 3.13892 6.78841 2.70688 7.3439 2.40709C7.90821 2.1073 8.54305 1.95741 9.24843 1.95741ZM9.24843 3.26678C8.86047 3.26678 8.50337 3.35495 8.17713 3.53129C7.85089 3.70764 7.58638 3.98097 7.38358 4.3513C7.1896 4.71281 7.09261 5.15808 7.09261 5.68711C7.09261 6.22497 7.1896 6.67465 7.38358 7.03616C7.58638 7.39766 7.85089 7.66659 8.17713 7.84294C8.50337 8.01928 8.86047 8.10745 9.24843 8.10745C9.63639 8.10745 9.99349 8.01928 10.3197 7.84294C10.646 7.66659 10.9061 7.39766 11.1001 7.03616C11.3029 6.67465 11.4043 6.22497 11.4043 5.68711C11.4043 5.15808 11.3029 4.71281 11.1001 4.3513C10.9061 3.98097 10.646 3.70764 10.3197 3.53129C9.99349 3.35495 9.63639 3.26678 9.24843 3.26678ZM17.3242 1.95741C17.9855 1.95741 18.5498 2.12053 19.0171 2.44677C19.4844 2.77301 19.8151 3.20505 20.009 3.74291L20.009 2.04999H21.5168L21.5168 9.41682C21.5168 10.0957 21.3757 10.6953 21.0936 11.2155C20.8202 11.7446 20.4235 12.159 19.9032 12.4588C19.383 12.7586 18.7658 12.9085 18.0516 12.9085C17.0288 12.9085 16.2 12.666 15.5651 12.181C14.9391 11.6961 14.5467 11.0392 14.388 10.2104H15.8826C16.006 10.6424 16.2441 10.9775 16.5968 11.2155C16.9495 11.4624 17.3991 11.5859 17.9458 11.5859C18.5454 11.5859 19.0391 11.4007 19.4271 11.0304C19.8151 10.6601 20.009 10.1222 20.009 9.41682V7.64455C19.8151 8.1824 19.4844 8.61445 19.0171 8.94069C18.5498 9.26693 17.9855 9.43004 17.3242 9.43004C16.6893 9.43004 16.1206 9.28015 15.618 8.98036C15.1243 8.68058 14.7363 8.24853 14.4542 7.68423C14.172 7.11992 14.0309 6.45422 14.0309 5.68711C14.0309 4.92883 14.172 4.26753 14.4542 3.70323C14.7363 3.13892 15.1243 2.70688 15.618 2.40709C16.1206 2.1073 16.6893 1.95741 17.3242 1.95741ZM17.7871 3.28C17.117 3.28 16.5791 3.49602 16.1735 3.92807C15.7768 4.3513 15.5784 4.93765 15.5784 5.68711C15.5784 6.43658 15.7768 7.02734 16.1735 7.45939C16.5791 7.88261 17.117 8.09423 17.7871 8.09423C18.2103 8.09423 18.5895 7.99724 18.9245 7.80326C19.2596 7.60046 19.5241 7.31831 19.7181 6.9568C19.9121 6.59529 20.009 6.17206 20.009 5.68711C20.009 5.21098 19.9121 4.79216 19.7181 4.43065C19.5241 4.06033 19.2596 3.77818 18.9245 3.5842C18.5895 3.3814 18.2103 3.28 17.7871 3.28ZM26.6591 1.95741C27.3645 1.95741 27.9993 2.1073 28.5636 2.40709C29.1279 2.70688 29.5688 3.13892 29.8862 3.70323C30.2036 4.26753 30.3623 4.92883 30.3623 5.68711C30.3623 6.45422 30.2036 7.11992 29.8862 7.68423C29.5688 8.24853 29.1279 8.68058 28.5636 8.98036C27.9993 9.28015 27.3645 9.43004 26.6591 9.43004C25.9537 9.43004 25.3189 9.28015 24.7546 8.98036C24.1991 8.68058 23.7582 8.24853 23.432 7.68423C23.1145 7.1111 22.9558 6.4454 22.9558 5.68711C22.9558 4.92883 23.1145 4.26753 23.432 3.70323C23.7582 3.13892 24.1991 2.70688 24.7546 2.40709C25.3189 2.1073 25.9537 1.95741 26.6591 1.95741ZM26.6591 3.26678C26.2711 3.26678 25.914 3.35495 25.5878 3.53129C25.2616 3.70764 24.997 3.98097 24.7942 4.3513C24.6003 4.71281 24.5033 5.15808 24.5033 5.68711C24.5033 6.22497 24.6003 6.67465 24.7942 7.03616C24.997 7.39766 25.2616 7.66659 25.5878 7.84294C25.914 8.01928 26.2711 8.10745 26.6591 8.10745C27.047 8.10745 27.4041 8.01928 27.7304 7.84294C28.0566 7.66659 28.3167 7.39766 28.5107 7.03616C28.7135 6.67465 28.8149 6.22497 28.8149 5.68711C28.8149 5.15808 28.7135 4.71281 28.5107 4.3513C28.3167 3.98097 28.0566 3.70764 27.7304 3.53129C27.4041 3.35495 27.047 3.26678 26.6591 3.26678ZM38.5307 2.04999V9.33746H37.0097V7.75036C36.8245 8.28821 36.5027 8.70703 36.0442 9.00682C35.5857 9.29779 35.0523 9.44327 34.4439 9.44327C33.5974 9.44327 32.9185 9.16994 32.4071 8.62327C31.8957 8.07659 31.64 7.29627 31.64 6.28228V2.04999H33.1477V6.12357C33.1477 6.78486 33.3153 7.29627 33.6503 7.65777C33.9854 8.01046 34.4439 8.18681 35.0258 8.18681C35.6254 8.18681 36.1059 7.99283 36.4674 7.60487C36.8289 7.21691 37.0097 6.65261 37.0097 5.91196V2.04999H38.5307ZM44 8.0281V9.33746H43.0742C42.2983 9.33746 41.7075 9.1523 41.3019 8.78198C40.9051 8.40283 40.7067 7.77681 40.7067 6.9039V3.3329H39.6619V2.04999H40.7067V0.238044H42.2277V2.04999L43.9868 2.04999V3.3329H42.2277V6.93035C42.2277 7.34476 42.3027 7.63132 42.4526 7.79003C42.6113 7.94874 42.8846 8.0281 43.2726 8.0281H44Z" fill="#1B303E"/>
</svg>
