<svg width="67" height="20" viewBox="0 0 67 20" fill="none" xmlns="http://www.w3.org/2000/svg">
<path d="M-5.69491e-07 14.3619L-5.69491e-07 -2.15807e-06L2.57468 -2.15807e-06L2.57468 12.1895L8.56886 12.1895V14.3619L-5.69491e-07 14.3619ZM20.5533 8.89069C20.5533 9.80256 20.4326 10.6071 20.1912 11.3045C19.9498 12.0018 19.6012 12.5985 19.1453 13.0947C18.7027 13.5774 18.1529 13.9462 17.4959 14.201C16.8522 14.4423 16.1348 14.563 15.3436 14.563C14.5926 14.563 13.902 14.4423 13.2718 14.201C12.6415 13.9462 12.0917 13.5774 11.6224 13.0947C11.1664 12.5985 10.8111 12.0018 10.5563 11.3045C10.3015 10.6071 10.1741 9.80256 10.1741 8.89069C10.1741 7.68381 10.382 6.66467 10.7977 5.83326C11.2134 4.98844 11.8101 4.35148 12.5879 3.92236C13.379 3.47984 14.311 3.25858 15.3838 3.25858C16.403 3.25858 17.2947 3.47984 18.0591 3.92236C18.8368 4.35148 19.447 4.98844 19.8895 5.83326C20.332 6.66467 20.5533 7.68381 20.5533 8.89069ZM12.7689 8.89069C12.7689 9.65505 12.8561 10.3121 13.0304 10.8619C13.2181 11.3983 13.4997 11.8073 13.8752 12.0889C14.2641 12.3705 14.7603 12.5113 15.3637 12.5113C15.9805 12.5113 16.4767 12.3705 16.8522 12.0889C17.2411 11.8073 17.5227 11.3983 17.697 10.8619C17.8713 10.3121 17.9585 9.65505 17.9585 8.89069C17.9585 8.11293 17.8646 7.46255 17.6769 6.93957C17.5026 6.40318 17.221 6.00088 16.8321 5.73269C16.4566 5.45108 15.9671 5.31028 15.3637 5.31028C14.4518 5.31028 13.788 5.6187 13.3723 6.23555C12.97 6.8524 12.7689 7.73745 12.7689 8.89069ZM26.8343 3.25858C27.5182 3.25858 28.135 3.39268 28.6848 3.66087C29.2346 3.92907 29.6973 4.33136 30.0727 4.86775H30.1733L30.4147 3.45973H32.5267V14.4423C32.5267 15.4749 32.3323 16.3398 31.9434 17.0371C31.5545 17.7479 30.9712 18.2843 30.1934 18.6463C29.4156 19.0084 28.4434 19.1894 27.2768 19.1894C26.499 19.1894 25.7816 19.1358 25.1245 19.0285C24.4674 18.9346 23.8439 18.767 23.2538 18.5256V16.4337C23.6695 16.608 24.0987 16.7555 24.5412 16.8762C24.9971 17.0103 25.4665 17.1109 25.9492 17.1779C26.432 17.245 26.9281 17.2785 27.4377 17.2785C28.2691 17.2785 28.8994 17.0438 29.3285 16.5745C29.771 16.1052 29.9923 15.4347 29.9923 14.563V14.2814C29.9923 14.0803 29.999 13.8456 30.0124 13.5774C30.0392 13.3092 30.0593 13.0947 30.0727 12.9337H29.9923C29.6168 13.497 29.1609 13.9127 28.6245 14.1809C28.0881 14.4356 27.4712 14.563 26.7739 14.563C25.4463 14.563 24.4071 14.0669 23.6561 13.0745C22.9052 12.0822 22.5297 10.701 22.5297 8.93092C22.5297 7.73745 22.6973 6.71831 23.0326 5.87349C23.3812 5.02867 23.8774 4.385 24.5211 3.94248C25.1647 3.48655 25.9358 3.25858 26.8343 3.25858ZM27.498 5.33039C26.9885 5.33039 26.5527 5.47119 26.1906 5.7528C25.8419 6.021 25.5737 6.42329 25.386 6.95968C25.2117 7.49607 25.1245 8.16656 25.1245 8.97115C25.1245 10.1512 25.3257 11.043 25.728 11.6464C26.1302 12.2498 26.7337 12.5516 27.5383 12.5516C27.9942 12.5516 28.3831 12.4979 28.7049 12.3907C29.0268 12.27 29.2883 12.0822 29.4894 11.8274C29.704 11.5592 29.8649 11.224 29.9722 10.8217C30.0794 10.406 30.1331 9.90984 30.1331 9.33322V8.95104C30.1331 8.0794 30.0392 7.38209 29.8515 6.85911C29.6637 6.32272 29.3754 5.93383 28.9865 5.69246C28.6111 5.45108 28.1149 5.33039 27.498 5.33039ZM45.5002 8.89069C45.5002 9.80256 45.3795 10.6071 45.1382 11.3045C44.8968 12.0018 44.5481 12.5985 44.0922 13.0947C43.6497 13.5774 43.0999 13.9462 42.4428 14.201C41.7991 14.4423 41.0817 14.563 40.2905 14.563C39.5396 14.563 38.849 14.4423 38.2187 14.201C37.5884 13.9462 37.0386 13.5774 36.5693 13.0947C36.1134 12.5985 35.758 12.0018 35.5032 11.3045C35.2484 10.6071 35.121 9.80256 35.121 8.89069C35.121 7.68381 35.3289 6.66467 35.7446 5.83326C36.1603 4.98844 36.757 4.35148 37.5348 3.92236C38.326 3.47984 39.258 3.25858 40.3307 3.25858C41.3499 3.25858 42.2416 3.47984 43.006 3.92236C43.7838 4.35148 44.3939 4.98844 44.8364 5.83326C45.279 6.66467 45.5002 7.68381 45.5002 8.89069ZM37.7158 8.89069C37.7158 9.65505 37.803 10.3121 37.9773 10.8619C38.1651 11.3983 38.4467 11.8073 38.8221 12.0889C39.211 12.3705 39.7072 12.5113 40.3106 12.5113C40.9275 12.5113 41.4236 12.3705 41.7991 12.0889C42.188 11.8073 42.4696 11.3983 42.6439 10.8619C42.8183 10.3121 42.9054 9.65505 42.9054 8.89069C42.9054 8.11293 42.8116 7.46255 42.6238 6.93957C42.4495 6.40318 42.1679 6.00088 41.779 5.73269C41.4035 5.45108 40.9141 5.31028 40.3106 5.31028C39.3988 5.31028 38.735 5.6187 38.3193 6.23555C37.917 6.8524 37.7158 7.73745 37.7158 8.89069ZM57.7955 3.45973V14.3619H55.8041L55.4622 12.9539H55.3415C55.1135 13.3293 54.8185 13.6378 54.4564 13.8791C54.0944 14.1071 53.6988 14.2747 53.2697 14.382C52.8406 14.5027 52.398 14.563 51.9421 14.563C51.1375 14.563 50.4402 14.4222 49.8502 14.1406C49.2602 13.859 48.8109 13.4299 48.5025 12.8533C48.1941 12.2633 48.0399 11.5056 48.0399 10.5803V3.45973H50.5743V10.0775C50.5743 10.882 50.7352 11.4922 51.0571 11.9079C51.3789 12.3102 51.8885 12.5113 52.5858 12.5113C53.2697 12.5113 53.8061 12.3705 54.195 12.0889C54.5838 11.7939 54.8587 11.3715 55.0197 10.8217C55.1806 10.2719 55.261 9.59471 55.261 8.79012V3.45973L57.7955 3.45973ZM65.25 12.5315C65.5719 12.5315 65.8803 12.5046 66.1753 12.451C66.4703 12.3839 66.7452 12.3102 67 12.2297V14.1205C66.7318 14.2412 66.3832 14.3418 65.954 14.4222C65.5249 14.5161 65.0757 14.563 64.6064 14.563C63.9895 14.563 63.4263 14.4625 62.9167 14.2613C62.4206 14.0468 62.0183 13.6847 61.7098 13.1751C61.4148 12.6656 61.2673 11.9548 61.2673 11.043V5.37062H59.7989V4.26431L61.4081 3.37927L62.2127 1.06608H63.8018V3.45973H66.8994V5.37062H63.8018V11.0229C63.8018 11.5324 63.9359 11.9146 64.2041 12.1694C64.4723 12.4108 64.8209 12.5315 65.25 12.5315Z" fill="#1B303E"/>
</svg>
