<svg width="67" height="20" viewBox="0 0 67 20" fill="none" xmlns="http://www.w3.org/2000/svg">
<path d="M1.47768e-05 14.3619L1.47768e-05 -2.15807e-06L2.5747 -2.15807e-06L2.5747 12.1895L8.56888 12.1895V14.3619L1.47768e-05 14.3619ZM20.5533 8.8907C20.5533 9.80257 20.4326 10.6072 20.1913 11.3045C19.9499 12.0018 19.6012 12.5985 19.1453 13.0947C18.7028 13.5774 18.153 13.9462 17.4959 14.201C16.8522 14.4424 16.1348 14.563 15.3436 14.563C14.5927 14.563 13.9021 14.4424 13.2718 14.201C12.6415 13.9462 12.0917 13.5774 11.6224 13.0947C11.1665 12.5985 10.8111 12.0018 10.5563 11.3045C10.3015 10.6072 10.1741 9.80257 10.1741 8.8907C10.1741 7.68382 10.382 6.66467 10.7977 5.83326C11.2134 4.98845 11.8101 4.35148 12.5879 3.92237C13.3791 3.47984 14.3111 3.25858 15.3838 3.25858C16.403 3.25858 17.2947 3.47984 18.0591 3.92237C18.8369 4.35148 19.447 4.98845 19.8895 5.83326C20.3321 6.66467 20.5533 7.68382 20.5533 8.8907ZM12.7689 8.8907C12.7689 9.65506 12.8561 10.3121 13.0304 10.8619C13.2182 11.3983 13.4998 11.8073 13.8752 12.0889C14.2641 12.3705 14.7603 12.5113 15.3637 12.5113C15.9806 12.5113 16.4767 12.3705 16.8522 12.0889C17.2411 11.8073 17.5227 11.3983 17.697 10.8619C17.8714 10.3121 17.9585 9.65506 17.9585 8.8907C17.9585 8.11293 17.8647 7.46256 17.6769 6.93957C17.5026 6.40318 17.221 6.00089 16.8321 5.73269C16.4566 5.45108 15.9672 5.31028 15.3637 5.31028C14.4519 5.31028 13.7881 5.61871 13.3724 6.23556C12.9701 6.85241 12.7689 7.73746 12.7689 8.8907ZM26.8343 3.25858C27.5182 3.25858 28.135 3.39268 28.6848 3.66088C29.2346 3.92907 29.6973 4.33137 30.0728 4.86776H30.1733L30.4147 3.45973H32.5268V14.4424C32.5268 15.4749 32.3323 16.3398 31.9434 17.0372C31.5545 17.7479 30.9712 18.2843 30.1934 18.6463C29.4157 19.0084 28.4435 19.1894 27.2768 19.1894C26.499 19.1894 25.7816 19.1358 25.1245 19.0285C24.4675 18.9346 23.8439 18.767 23.2539 18.5256V16.4337C23.6696 16.608 24.0987 16.7556 24.5412 16.8762C24.9971 17.0103 25.4665 17.1109 25.9492 17.178C26.432 17.245 26.9282 17.2785 27.4377 17.2785C28.2691 17.2785 28.8994 17.0439 29.3285 16.5745C29.771 16.1052 29.9923 15.4347 29.9923 14.563V14.2814C29.9923 14.0803 29.999 13.8456 30.0124 13.5774C30.0392 13.3092 30.0594 13.0947 30.0728 12.9338H29.9923C29.6168 13.497 29.1609 13.9127 28.6245 14.1809C28.0881 14.4357 27.4713 14.563 26.7739 14.563C25.4464 14.563 24.4071 14.0669 23.6562 13.0746C22.9052 12.0822 22.5297 10.701 22.5297 8.93093C22.5297 7.73746 22.6974 6.71831 23.0326 5.87349C23.3813 5.02868 23.8774 4.385 24.5211 3.94248C25.1648 3.48655 25.9358 3.25858 26.8343 3.25858ZM27.4981 5.3304C26.9885 5.3304 26.5527 5.4712 26.1906 5.7528C25.842 6.021 25.5738 6.42329 25.386 6.95969C25.2117 7.49608 25.1245 8.16657 25.1245 8.97116C25.1245 10.1512 25.3257 11.043 25.728 11.6464C26.1303 12.2499 26.7337 12.5516 27.5383 12.5516C27.9942 12.5516 28.3831 12.4979 28.705 12.3907C29.0268 12.27 29.2883 12.0822 29.4894 11.8274C29.704 11.5593 29.8649 11.224 29.9722 10.8217C30.0795 10.406 30.1331 9.90984 30.1331 9.33322V8.95104C30.1331 8.07941 30.0392 7.3821 29.8515 6.85911C29.6638 6.32272 29.3755 5.93384 28.9866 5.69246C28.6111 5.45108 28.1149 5.3304 27.4981 5.3304ZM45.5003 8.8907C45.5003 9.80257 45.3796 10.6072 45.1382 11.3045C44.8968 12.0018 44.5482 12.5985 44.0922 13.0947C43.6497 13.5774 43.0999 13.9462 42.4428 14.201C41.7992 14.4424 41.0817 14.563 40.2906 14.563C39.5396 14.563 38.849 14.4424 38.2187 14.201C37.5885 13.9462 37.0387 13.5774 36.5693 13.0947C36.1134 12.5985 35.758 12.0018 35.5033 11.3045C35.2485 10.6072 35.1211 9.80257 35.1211 8.8907C35.1211 7.68382 35.3289 6.66467 35.7446 5.83326C36.1603 4.98845 36.7571 4.35148 37.5348 3.92237C38.326 3.47984 39.258 3.25858 40.3308 3.25858C41.3499 3.25858 42.2417 3.47984 43.006 3.92237C43.7838 4.35148 44.394 4.98845 44.8365 5.83326C45.279 6.66467 45.5003 7.68382 45.5003 8.8907ZM37.7159 8.8907C37.7159 9.65506 37.803 10.3121 37.9774 10.8619C38.1651 11.3983 38.4467 11.8073 38.8222 12.0889C39.2111 12.3705 39.7072 12.5113 40.3107 12.5113C40.9275 12.5113 41.4237 12.3705 41.7992 12.0889C42.188 11.8073 42.4697 11.3983 42.644 10.8619C42.8183 10.3121 42.9055 9.65506 42.9055 8.8907C42.9055 8.11293 42.8116 7.46256 42.6239 6.93957C42.4495 6.40318 42.1679 6.00089 41.779 5.73269C41.4036 5.45108 40.9141 5.31028 40.3107 5.31028C39.3988 5.31028 38.735 5.61871 38.3193 6.23556C37.917 6.85241 37.7159 7.73746 37.7159 8.8907ZM57.7955 3.45973V14.3619H55.8042L55.4622 12.9539H55.3415C55.1136 13.3293 54.8186 13.6378 54.4565 13.8791C54.0944 14.1071 53.6988 14.2747 53.2697 14.382C52.8406 14.5027 52.3981 14.563 51.9422 14.563C51.1376 14.563 50.4403 14.4222 49.8502 14.1406C49.2602 13.859 48.811 13.4299 48.5025 12.8533C48.1941 12.2633 48.0399 11.5056 48.0399 10.5803V3.45973H50.5744V10.0775C50.5744 10.8821 50.7353 11.4922 51.0571 11.9079C51.379 12.3102 51.8885 12.5113 52.5858 12.5113C53.2697 12.5113 53.8061 12.3705 54.195 12.0889C54.5839 11.7939 54.8588 11.3715 55.0197 10.8217C55.1806 10.2719 55.2611 9.59471 55.2611 8.79013V3.45973L57.7955 3.45973ZM65.2501 12.5315C65.5719 12.5315 65.8803 12.5046 66.1754 12.451C66.4704 12.384 66.7453 12.3102 67.0001 12.2297V14.1205C66.7319 14.2412 66.3832 14.3418 65.9541 14.4222C65.525 14.5161 65.0758 14.563 64.6064 14.563C63.9896 14.563 63.4264 14.4625 62.9168 14.2613C62.4206 14.0468 62.0183 13.6847 61.7099 13.1751C61.4149 12.6656 61.2674 11.9548 61.2674 11.043V5.37063H59.799V4.26432L61.4082 3.37927L62.2128 1.06608H63.8018V3.45973H66.8995V5.37063H63.8018V11.0229C63.8018 11.5324 63.9359 11.9146 64.2041 12.1694C64.4723 12.4108 64.821 12.5315 65.2501 12.5315Z" fill="#1B303E"/>
</svg>
