<svg width="548" height="32" viewBox="0 0 548 32" fill="none" xmlns="http://www.w3.org/2000/svg">
<rect width="32" height="32" rx="6" fill="#FFF2E6"/>
<path d="M22.6666 11.4167H19.3333V9.75C19.3333 8.825 18.5916 8.08333 17.6666 8.08333H14.3333C13.4083 8.08333 12.6666 8.825 12.6666 9.75V11.4167H9.33329C8.40829 11.4167 7.67496 12.1583 7.67496 13.0833L7.66663 22.25C7.66663 23.175 8.40829 23.9167 9.33329 23.9167H22.6666C23.5916 23.9167 24.3333 23.175 24.3333 22.25V13.0833C24.3333 12.1583 23.5916 11.4167 22.6666 11.4167ZM17.6666 11.4167H14.3333V9.75H17.6666V11.4167Z" fill="#FF9228"/>
<path d="M45.35 22H47.402V13.432L51.236 22H52.658L56.474 13.432V22H58.526V9.49H56.33L51.956 19.3L47.564 9.49H45.35V22ZM65.399 13.648C66.929 13.648 68.135 14.62 68.171 16.15H62.681C62.897 14.584 64.013 13.648 65.399 13.648ZM70.043 19.048H67.829C67.451 19.822 66.749 20.434 65.489 20.434C63.977 20.434 62.807 19.444 62.663 17.806H70.241C70.295 17.464 70.313 17.14 70.313 16.798C70.313 13.882 68.315 11.92 65.489 11.92C62.555 11.92 60.539 13.918 60.539 17.032C60.539 20.146 62.645 22.162 65.489 22.162C67.919 22.162 69.485 20.776 70.043 19.048ZM79.7304 19.228C79.6224 15.646 74.0244 16.762 74.0244 14.764C74.0244 14.098 74.6004 13.648 75.6984 13.648C76.8144 13.648 77.4804 14.242 77.5524 15.106H79.6044C79.4964 13.126 78.0204 11.92 75.7704 11.92C73.4304 11.92 71.9544 13.198 71.9544 14.782C71.9544 18.418 77.7144 17.302 77.7144 19.246C77.7144 19.93 77.0844 20.434 75.8964 20.434C74.7624 20.434 73.9884 19.768 73.9164 18.958H71.7924C71.8824 20.758 73.5564 22.162 75.9324 22.162C78.2724 22.162 79.7304 20.902 79.7304 19.228ZM89.3457 19.228C89.2377 15.646 83.6397 16.762 83.6397 14.764C83.6397 14.098 84.2157 13.648 85.3137 13.648C86.4297 13.648 87.0957 14.242 87.1677 15.106H89.2197C89.1117 13.126 87.6357 11.92 85.3857 11.92C83.0457 11.92 81.5697 13.198 81.5697 14.782C81.5697 18.418 87.3297 17.302 87.3297 19.246C87.3297 19.93 86.6997 20.434 85.5117 20.434C84.3777 20.434 83.6037 19.768 83.5317 18.958H81.4077C81.4977 20.758 83.1717 22.162 85.5477 22.162C87.8877 22.162 89.3457 20.902 89.3457 19.228ZM90.8789 16.996C90.8789 20.056 92.9489 22.162 95.5229 22.162C97.1789 22.162 98.3669 21.37 98.9969 20.524V22H101.067V12.082H98.9969V13.522C98.3849 12.712 97.2329 11.92 95.5589 11.92C92.9489 11.92 90.8789 13.936 90.8789 16.996ZM98.9969 17.032C98.9969 19.174 97.5389 20.38 95.9909 20.38C94.4609 20.38 92.9849 19.138 92.9849 16.996C92.9849 14.854 94.4609 13.702 95.9909 13.702C97.5389 13.702 98.9969 14.908 98.9969 17.032ZM103.078 16.996C103.078 20.056 105.148 22.162 107.758 22.162C109.378 22.162 110.566 21.352 111.196 20.506V22.162C111.196 24.142 110.008 25.114 108.424 25.114C107.002 25.114 105.904 24.412 105.598 23.386H103.564C103.816 25.582 105.778 26.896 108.424 26.896C111.52 26.896 113.266 24.862 113.266 22.162V12.082H111.196V13.522C110.584 12.676 109.378 11.92 107.758 11.92C105.148 11.92 103.078 13.936 103.078 16.996ZM111.196 17.032C111.196 19.174 109.738 20.38 108.19 20.38C106.66 20.38 105.184 19.138 105.184 16.996C105.184 14.854 106.66 13.702 108.19 13.702C109.738 13.702 111.196 14.908 111.196 17.032ZM120.137 13.648C121.667 13.648 122.873 14.62 122.909 16.15H117.419C117.635 14.584 118.751 13.648 120.137 13.648ZM124.781 19.048L122.567 19.048C122.189 19.822 121.487 20.434 120.227 20.434C118.715 20.434 117.545 19.444 117.401 17.806L124.979 17.806C125.033 17.464 125.051 17.14 125.051 16.798C125.051 13.882 123.053 11.92 120.227 11.92C117.293 11.92 115.277 13.918 115.277 17.032C115.277 20.146 117.383 22.162 120.227 22.162C122.657 22.162 124.223 20.776 124.781 19.048Z" fill="black"/>
</svg>
